<svg width="24" height="24" viewBox="0 0 24 24" fill="none" xmlns="http://www.w3.org/2000/svg">
<path d="M21.8457 6.49922L17.7581 2.47434L12.17 1L6.58498 2.47434L2.49733 6.49922L1 11.9984L2.49733 17.4977L6.58498 21.5257L12.17 23L17.7549 21.5257L21.8457 17.4977L23.3431 11.9984L21.8457 6.49922ZM12.0404 1.32659V3.39813L7.34628 2.56454L12.0404 1.32659ZM12.0404 3.7776V11.7745L5.00551 7.77449L12.0404 3.77449V3.7776ZM6.28804 3.16796L4.67383 7.58787L2.85113 6.5521L6.28488 3.16796H6.28804ZM1.28746 11.9984L4.61065 8.12908V15.8678L1.28746 11.9984ZM2.84797 17.4479L4.67067 16.4121L6.28488 20.832L2.84797 17.4479ZM12.0373 22.6734L7.34312 21.4355L12.0373 20.6019V22.6734ZM12.0373 20.2224L5.00236 16.2224L12.0373 12.2224V20.2224ZM21.6214 6.77605L22.8787 11.3981L19.7987 7.81182L21.6214 6.77605ZM17.6096 2.72006L19.3502 7.48834L12.5427 3.61897L17.6096 2.72006ZM17.6096 21.2799L12.5427 20.381L19.3502 16.5117L17.6065 21.2799H17.6096ZM19.4671 15.9984L12.4321 11.9984L19.4671 7.99844V15.9984ZM21.6214 17.2239L19.7987 16.1882L22.8787 12.6019L21.6214 17.2239Z" fill="white"/>
</svg>
