<svg width="24" height="24" viewBox="0 0 24 24" fill="none" xmlns="http://www.w3.org/2000/svg">
<path d="M12.2536 6.34615C13.2015 6.34615 14.3897 5.70534 15.0973 4.85092C15.7381 4.0766 16.2053 2.99523 16.2053 1.91386C16.2053 1.76701 16.192 1.62015 16.1653 1.5C15.1106 1.54005 13.8423 2.20757 13.0814 3.10203C12.4806 3.7829 11.9332 4.85092 11.9332 5.94564C11.9332 6.10585 11.9599 6.26605 11.9733 6.31945C12.04 6.3328 12.1468 6.34615 12.2536 6.34615ZM8.91608 22.5C10.2111 22.5 10.7851 21.6322 12.4005 21.6322C14.0426 21.6322 14.403 22.4733 15.8449 22.4733C17.26 22.4733 18.2079 21.165 19.1023 19.8833C20.1036 18.4148 20.5175 16.973 20.5442 16.9062C20.4507 16.8795 17.7406 15.7715 17.7406 12.6608C17.7406 9.96408 19.8767 8.7492 19.9968 8.65575C18.5817 6.62651 16.4323 6.57311 15.8449 6.57311C14.2562 6.57311 12.9612 7.53433 12.1468 7.53433C11.2657 7.53433 10.1043 6.62651 8.72917 6.62651C6.11252 6.62651 3.45581 8.78925 3.45581 12.8744C3.45581 15.411 4.44373 18.0944 5.65861 19.8299C6.69993 21.2985 7.60775 22.5 8.91608 22.5Z" fill="white"/>
</svg>
