<svg xmlns="http://www.w3.org/2000/svg" width="40" height="40" viewBox="0 0 40 40" fill="none">
  <circle cx="20" cy="20" r="20" fill="#F5F5F5"/>
  <path d="M29.6 20.23c0-.74-.07-1.45-.19-2.13H20v4.03h5.38a4.6 4.6 0 01-2 3.02v2.5h3.24c1.89-1.74 2.98-4.3 2.98-7.42z" fill="#4285F4"/>
  <path d="M20 30c2.7 0 4.96-.9 6.62-2.42l-3.24-2.5c-.9.6-2.04.95-3.38.95-2.6 0-4.8-1.76-5.58-4.12h-3.34v2.58A10 10 0 0020 30z" fill="#34A853"/>
  <path d="M14.42 22.02a6.01 6.01 0 010-3.84v-2.58h-3.34a10 10 0 000 8.98l3.34-2.56z" fill="#FBBC05"/>
  <path d="M20 13.98c1.47 0 2.78.5 3.82 1.5l2.86-2.87A10 10 0 0020 10a10 10 0 00-8.92 5.5l3.34 2.58c.78-2.36 2.98-4.1 5.58-4.1z" fill="#EA4335"/>
</svg>