<svg xmlns="http://www.w3.org/2000/svg" width="40" height="40" viewBox="0 0 40 40" fill="none">
  <circle cx="20" cy="20" r="20" fill="#000000"/>
  <path d="M27.2 21.1c-.03-2.8 2.3-4.15 2.4-4.22-1.31-1.91-3.34-2.17-4.07-2.2-1.73-.18-3.38 1.02-4.26 1.02-.88 0-2.24-1-3.68-.97-1.89.03-3.64 1.1-4.61 2.8-1.97 3.42-.5 8.48 1.42 11.25.94 1.36 2.06 2.88 3.53 2.83 1.42-.06 1.95-.91 3.67-.91 1.71 0 2.2.91 3.69.88 1.52-.03 2.49-1.38 3.42-2.75 1.08-1.58 1.52-3.1 1.55-3.18-.03-.02-2.97-1.14-3-4.52zm-2.81-8.31c.78-.95 1.31-2.26 1.17-3.57-1.13.05-2.5.75-3.31 1.7-.73.84-1.37 2.19-1.2 3.48 1.26.1 2.55-.64 3.34-1.61z" fill="white"/>
</svg>