<svg width="130" height="30" viewBox="0 0 130 30" fill="none" xmlns="http://www.w3.org/2000/svg">
<g clip-path="url(#clip0_34_6832)">
<path d="M25.6152 20.7805L15.3389 15V26.4878L25.6152 20.7805Z" fill="#D62C2E"/>
<path d="M4.987 20.7805L15.3389 26.4878V15L4.987 20.7805Z" fill="#EC402E"/>
<path d="M30.6022 15L28.5621 7.60974L25.6152 9.2195L30.6022 15Z" fill="#DE5398"/>
<path d="M25.6152 20.7805L22.9705 27.8048L28.562 22.3902L25.6152 20.7805Z" fill="#4A519F"/>
<path d="M28.5621 22.3902L30.6022 15L25.6152 20.7805L28.5621 22.3902Z" fill="#5E5CA5"/>
<path d="M15.3389 3.51221L4.987 9.21952L15.3389 15V3.51221Z" fill="#F58F31"/>
<path d="M25.6152 20.7805V9.21948L15.3389 15L25.6152 20.7805Z" fill="#EC402E"/>
<path d="M4.987 9.21948V20.7805L15.3389 15L4.987 9.21948Z" fill="#F06A2F"/>
<path d="M15.3389 29.8536L22.9705 27.8049L15.3389 26.4878V29.8536Z" fill="#064D59"/>
<path d="M25.6152 9.21952L28.562 7.60976L22.9705 2.19513L25.6152 9.21952Z" fill="#FCBA31"/>
<path d="M25.6152 9.21952L15.3389 3.51221V15L25.6152 9.21952Z" fill="#F06A2F"/>
<path d="M2.04015 7.60974L0 15L4.98702 9.2195L2.04015 7.60974Z" fill="#FCBA31"/>
<path d="M15.3389 26.4878L7.63165 27.8049L15.3389 29.8536V26.4878Z" fill="#0F897A"/>
<path d="M4.98704 9.21952L7.63167 2.19513L2.04016 7.60976L4.98704 9.21952Z" fill="#FCD630"/>
<path d="M15.3389 0.14624L7.63165 2.19502L15.3389 3.51209V0.14624Z" fill="#FCD630"/>
<path d="M0 15L2.04015 22.3902L4.98702 20.7805L0 15Z" fill="#FCBA31"/>
<path d="M4.98704 20.7805L2.04016 22.3902L7.63167 27.8048L4.98704 20.7805Z" fill="#59C0AB"/>
<path d="M22.9705 2.19502L15.3389 0.14624V3.51209L22.9705 2.19502Z" fill="#FCBA31"/>
<path d="M15.3389 26.4878L22.9705 27.8048L25.6152 20.7805L15.3389 26.4878Z" fill="#5E5CA5"/>
<path d="M4.987 20.7805L7.63163 27.8048L15.3389 26.4878L4.987 20.7805Z" fill="#0CAA7E"/>
<path d="M25.6152 9.21952L22.9705 2.19513L15.3389 3.5122L25.6152 9.21952Z" fill="#F79B31"/>
<path d="M25.6152 9.21948V20.7805L30.6022 15L25.6152 9.21948Z" fill="#CF2875"/>
<path d="M15.3389 3.5122L7.63163 2.19513L4.987 9.21952L15.3389 3.5122Z" fill="#FCBA31"/>
<path d="M4.98702 20.7805V9.21948L0 15L4.98702 20.7805Z" fill="#F79B31"/>
<path d="M106.994 9.95123H98.4559V13.8293H106.994V9.95123ZM100.194 11.4146H105.256V12.3659H100.194V11.4146Z" fill="white"/>
<path d="M109.034 13.9756H110.772V9.07313H112.586V7.46338H97.0958V9.07313H109.034V13.9756Z" fill="white"/>
<path d="M40.8029 22.5366H52.5904C54.0261 22.5366 55.1595 21.7317 55.1595 20.3415V15.8781H40.8029V22.5366ZM42.6919 17.6341H53.2705V19.8293C53.2705 20.561 52.8927 20.7805 52.2126 20.7805H42.6919V17.6341Z" fill="white"/>
<path d="M52.1371 10.2439L53.346 12.2927H42.5408V11.9268C42.5408 11.1951 42.9186 10.6829 43.5231 10.4634L48.0568 8.34143L47.2256 6.65851L42.5408 8.9268C41.1052 9.58534 40.5007 10.6829 40.5007 12.0731V14.1951H54.4794L55.0084 15.0731L56.6707 14.2683L53.7994 9.51217L52.1371 10.2439Z" fill="white"/>
<path d="M96.2646 16.2439H109.034V19.4634C109.034 21.2195 107.75 21.5854 106.012 21.5854V23.2683H106.314C109.261 23.2683 110.848 22.0244 110.848 19.3903V16.1707H113.039V14.6342H96.3402V16.2439H96.2646Z" fill="white"/>
<path d="M87.1973 12.5853H94.1489V10.6829H87.1973V7.17072H85.2327V10.6829H78.4323V12.5853H85.1572C84.5527 15.878 83.2681 19.3171 77.9033 21.2927L78.8856 22.9756C84.0238 21.0732 85.6105 18.0732 86.3662 15.2195C87.4996 18.2927 89.9175 21.439 93.7711 22.9756L94.829 21.2195C90.0686 19.1707 87.9529 15.5853 87.1973 12.5853Z" fill="white"/>
<path d="M106.994 17.1219H98.3048V21.1463H106.994V17.1219ZM105.256 19.6829H100.043V18.5854H105.256V19.6829Z" fill="white"/>
<path d="M123.542 12.5853H130.494V10.6829H123.542V7.17072H121.502V10.6829H114.702V12.5853H121.426C120.822 15.878 119.537 19.3171 114.173 21.2927L115.155 22.9756C120.293 21.0732 121.88 18.0732 122.635 15.2195C123.769 18.2927 126.187 21.439 130.04 22.9756L131.098 21.2195C126.338 19.1707 124.222 15.5853 123.542 12.5853Z" fill="white"/>
<path d="M60.3733 17.049C60.3733 19.5368 59.9955 21.0002 58.1064 21.7319L59.1643 23.1222C61.7334 22.171 62.1112 19.7563 62.1112 16.7563V16.61H60.3733V17.049Z" fill="white"/>
<path d="M58.5598 7.97561L61.1288 10.7561L62.4134 9.58537L59.8443 6.87805L58.5598 7.97561Z" fill="white"/>
<path d="M58.4842 12.2927L61.0533 15.0732L62.3378 13.9756L59.7687 11.2683L58.4842 12.2927Z" fill="white"/>
<path d="M65.2091 18.6585H74.7298V15.3658H63.3201V16.6829H72.9163V17.3415H63.6979L62.9423 21.2927L64.6802 21.5854L64.8313 20.8536H73.6719C73.4452 21.439 72.5385 21.7317 69.8939 21.8049V23.3415H70.1206C73.9742 23.3415 75.4854 22.3171 75.4854 20.2683V19.4634H65.058L65.2091 18.6585Z" fill="white"/>
<path d="M66.6448 8.70731V7.46341H68.3827V6.80487H69.8183V7.46341H71.6318V8.70731H66.6448Z" fill="white"/>
<path d="M69.7428 14.6341V13.9756H68.5338V14.6341H67.2493V12.7317H71.0273V14.6341H69.7428Z" fill="white"/>
<path d="M70.8006 10.9756H67.4004V12.2187H70.8006V10.9756Z" fill="white"/>
<path d="M70.8006 9.21948H67.4004V10.4626H70.8006V9.21948Z" fill="white"/>
<path d="M65.3602 13.3903H64.3779V13.3171C64.3779 13.0976 64.3779 12.8781 64.529 12.5854L66.8714 9.87806L65.8891 9.14635L64.9824 10.1707H64.3024V9.87806C64.3024 9.65855 64.3779 9.43904 64.529 9.2927L65.8136 7.68294L64.8313 6.95123L63.3201 8.7805C63.0178 9.07318 62.9423 9.43904 62.9423 9.87806V11.2683H64.0757L63.3201 12.0732C63.0178 12.439 62.8667 12.8781 62.8667 13.4634V14.6342H66.6447V12.2195H65.2847V13.3903H65.3602Z" fill="white"/>
<path d="M73.9742 13.3903H72.9919V13.3171C72.9919 13.0976 72.9919 12.8781 73.1431 12.5854L75.4854 9.87806L74.5031 9.14635L73.5964 10.1707H72.9164V9.87806C72.9164 9.65855 72.9919 9.43904 73.1431 9.2927L74.4276 7.68294L73.4453 6.95123L71.9341 8.7805C71.6318 9.07318 71.5563 9.43904 71.5563 9.87806V11.2683H72.6897L71.9341 12.0732C71.6318 12.439 71.4807 12.8781 71.4807 13.4634V14.6342H75.2588V12.2195H73.8987V13.3903H73.9742Z" fill="white"/>
</g>
<defs>
<clipPath id="clip0_34_6832">
<rect width="130" height="30" fill="white"/>
</clipPath>
</defs>
</svg>
