<svg width="85" height="40" viewBox="0 0 85 40" fill="none" xmlns="http://www.w3.org/2000/svg">
<g clip-path="url(#clip0_90_1096)">
<path opacity="0.2" d="M60.7007 4.23867L61.7977 6.41603L64.2332 6.76441L62.4728 8.44533L62.8889 10.8346L60.7007 9.7082L58.5125 10.8346L58.9286 8.44533L57.1681 6.76441L59.6037 6.41603L60.7007 4.23867ZM60.7007 1.91905L59.7666 3.77417L58.914 5.4667L57.0197 5.73669L54.8955 6.03862L56.4465 7.51923L57.8054 8.81693L57.4853 10.6575L57.1245 12.7246L58.9926 11.7607L60.7007 10.8811L62.4088 11.7607L64.2769 12.7246L63.9161 10.6575L63.596 8.81693L64.9549 7.51923L66.5058 6.03862L64.3816 5.73669L62.4873 5.4667L61.6347 3.77417L60.7007 1.91905Z" fill="black"/>
<path opacity="0.2" d="M62.9934 4.76442L64.4904 4.9779L68.1789 5.50239L64.4228 9.08823L64.6731 10.5265L65.2994 14.1149L62.0559 12.4416L60.7008 11.7436L59.3453 12.4413L56.1021 14.1149L56.9782 9.08795L53.2227 5.50239L58.4078 4.76442L60.7008 0.211805L62.9934 4.76442ZM60.11 7.11784L58.8398 7.29957L59.7556 8.1742L59.534 9.44631L60.7008 8.84583L61.8675 9.44631L61.6459 8.1742L62.5615 7.29957L61.2915 7.11784L60.7005 5.94524L60.11 7.11784Z" fill="black"/>
<path d="M59.3335 3.68413L60.4305 5.86149L62.866 6.20987L61.1056 7.89079L61.5217 10.2801L59.3335 9.15366L57.1453 10.2801L57.5614 7.89079L55.8009 6.20987L58.2365 5.86149L59.3335 3.68413ZM59.3335 1.36451L58.3994 3.21672L57.5468 4.90926L55.6525 5.17925L53.5283 5.48118L55.0793 6.96178L56.4353 8.25949L56.1152 10.1001L55.7544 12.1671L57.6225 11.2033L59.3306 10.3236L61.0387 11.2033L62.9068 12.1671L62.546 10.1001L62.2259 8.25949L63.5848 6.96178L65.1357 5.48118L63.0115 5.17925L61.1172 4.90926L60.2646 3.21672L59.3306 1.36451H59.3335Z" fill="#F6F6F7"/>
<path d="M55.3463 12.7247L56.1058 8.37L52.8584 5.26944L57.3425 4.63074L59.3299 0.682463L61.3173 4.63074L65.8043 5.26944L62.5569 8.37L63.3164 12.7247L59.3299 10.6722L55.3463 12.7276V12.7247ZM59.3328 8.80837L61.1137 9.72577L60.7732 7.78356L62.1961 6.42489L60.2291 6.14328L59.3328 4.36656L58.4395 6.14328L56.4724 6.42489L57.8954 7.78356L57.5549 9.72577L59.3328 8.80837Z" fill="white"/>
<path d="M61.5189 4.34986L66.4722 5.05524L62.8866 8.47834L63.7243 13.2796L59.3291 11.0166L55.0388 13.2308V12.6981L55.7748 8.47834L52.1895 5.05524L57.1393 4.34986L59.3294 -3.86238e-05L61.5189 4.34986ZM57.5443 4.91121L53.5262 5.48362L56.4357 8.26146L55.7537 12.1719L59.3291 10.3274L62.9073 12.1694L62.2259 8.26146L65.1352 5.48362L61.1145 4.91121L59.3291 1.36478L57.5443 4.91121ZM60.4305 5.86268L62.8636 6.21111L61.1032 7.89176L61.522 10.2812L59.332 9.15281L57.1453 10.2815L57.5639 7.89176L55.804 6.21111L58.2365 5.86268L59.3317 3.68418L60.4305 5.86268ZM58.6414 6.42374L57.1396 6.63836L58.1069 7.56232L58.2254 7.67516L57.9634 9.16954L59.3322 8.4636L60.7039 9.17011L60.4703 7.83619L60.4419 7.67516L60.5604 7.56232L61.5274 6.63836L60.0262 6.42374L59.9543 6.28085L59.3325 5.04843L58.6414 6.42374Z" fill="#A6A6A6"/>
<path opacity="0.2" d="M18.8014 16.9313L18.8684 27.2316L25.4068 27.1997C25.5989 25.7539 24.7143 19.0506 24.7143 19.0506C23.5067 10.5966 20.0148 11.2237 20.0148 11.2237C17.719 11.3659 16.4154 14.002 16.4154 14.002C15.5657 11.2208 12.877 11.4269 12.877 11.4269C10.8895 11.5285 9.97585 13.4736 9.97585 13.4736L9.56847 11.392L4.02229 11.4385L2.70703 27.49L10.0515 27.4087L9.98749 17.0038C10.0108 15.7294 10.9274 15.6568 11.4133 16.7861L14.0817 26.7787C14.4396 27.7019 14.7451 26.8774 14.7451 26.8774L17.041 16.7396C17.9605 15.4942 18.8014 16.9313 18.8014 16.9313ZM42.6913 28.1926C38.0967 23.1759 42.2985 18.5977 42.2985 18.5977C45.7932 15.8832 51.0892 18.2144 51.0892 18.2144L51.6566 11.9117C46.0551 10.1031 43.1686 11.363 43.1686 11.363C35.4371 14.9397 36.2169 21.3295 36.2169 21.3295C36.1849 29.8996 42.7146 31.2902 42.7146 31.2902C51.8312 32.7621 53.9583 27.6874 53.9583 27.6874C48.8195 31.8563 42.6884 28.1926 42.6884 28.1926H42.6913ZM30.6067 18.4844L29.856 15.3113L25.5116 15.3258L27.9617 23.6666C28.3225 25.452 27.5688 26.3549 27.5688 26.3549C24.7666 29.4758 18.6239 28.7703 18.6239 28.7703C18.4901 29.3916 16.3077 32.5037 16.3077 32.5037C16.04 33.5402 17.0061 33.5315 17.0061 33.5315C25.561 33.665 29.7367 38.2055 29.7367 38.2055C31.5408 39.1897 31.4855 37.0588 31.4855 37.0588C31.9511 30.8606 35.6495 15.2619 35.6495 15.2619H31.404L30.6038 18.4815L30.6067 18.4844ZM55.3434 15.2503C52.3812 15.8948 52.6198 19.3989 52.6198 19.3989C54.3366 18.5599 55.099 18.8299 55.099 18.8299C56.8943 19.0215 56.7692 20.6066 56.7692 20.6066C53.935 19.9418 52.9428 21.5473 52.9428 21.5473C51.1066 24.7262 53.3007 26.5233 53.3007 26.5233C54.1387 27.4813 56.6092 26.2475 56.6092 26.2475L56.5452 26.802L61.2329 26.7642C61.3028 18.5715 59.8275 16.6845 59.8275 16.6845C58.3638 14.5623 55.3463 15.2474 55.3463 15.2474L55.3434 15.2503ZM55.7566 25.3504C55.0437 25.3562 54.4588 24.7814 54.453 24.0701C54.4472 23.3559 55.0233 22.7753 55.7362 22.7695C56.4491 22.7637 56.9787 23.3385 57.0398 24.0498C57.4268 28.6193 56.4724 25.3446 55.7566 25.3533V25.3504ZM83.182 12.0336H78.4244L78.4564 15.7787L76.6377 15.7613C72.8636 17.1025 73.1255 20.4179 73.1255 20.4179L73.1604 22.5488C73.3699 26.1807 77.6474 27.6584 77.6474 27.6584L83.4526 27.6235L83.1849 12.0336H83.182ZM78.7183 24.5869C76.3904 24.7117 76.434 22.3688 76.434 22.3688C76.3118 20.4092 77.4932 20.1625 77.4932 20.1625L78.6833 20.1537L78.7183 24.5898V24.5869ZM69.689 15.1197C67.9634 15.0645 67.0294 17.1374 67.0294 17.1374L66.7267 15.4332L62.8916 15.4652L62.8508 27.3013L68.4785 27.2519C68.4639 25.4636 67.5444 22.305 67.5444 22.305C67.2592 21.4137 67.3204 20.4499 67.3204 20.4499C67.7306 19.8257 69.6046 20.8447 69.6046 20.8447C72.366 21.5095 72.2293 18.2057 72.2293 18.2057C71.8277 14.7684 69.6919 15.1168 69.6919 15.1168L69.689 15.1197Z" fill="black"/>
<path opacity="0.2" d="M45.2153 9.42775C46.8363 9.3264 49.1515 9.49044 52.1297 10.4521L53.2976 10.8291L52.9449 14.7433C53.3748 14.3828 53.9014 14.0791 54.5442 13.8769L54.5718 13.8497L55.0046 13.7513L55.0048 13.7535C55.0052 13.7535 55.0056 13.7533 55.006 13.7533C55.0056 13.7511 55.0056 13.751 55.0057 13.751C55.006 13.7509 55.0065 13.7508 55.0068 13.7507C55.0077 13.7505 55.0087 13.7504 55.0097 13.7501C55.0116 13.7497 55.0137 13.7492 55.0159 13.7487C55.0205 13.7477 55.0258 13.7466 55.0318 13.7453C55.044 13.7427 55.0591 13.7396 55.077 13.736C55.113 13.7288 55.1607 13.7198 55.2185 13.7099C55.3341 13.6901 55.4926 13.6667 55.6843 13.6472C56.0637 13.6087 56.594 13.5837 57.1912 13.6435C58.3663 13.7614 60.0057 14.2368 61.0939 15.8147C61.1007 15.8242 61.1078 15.8341 61.115 15.8447C61.1441 15.8874 61.1769 15.9384 61.2127 15.9987C61.2549 16.0696 61.3007 16.1535 61.3503 16.2516L61.3582 13.9435L68.0137 13.8882L68.0247 13.952C68.4731 13.7358 68.9963 13.5884 69.5925 13.5843C69.6275 13.5811 69.6671 13.5781 69.7107 13.5761C69.8359 13.5701 69.9983 13.5704 70.1875 13.5897C70.5655 13.6282 71.0681 13.7442 71.5887 14.0495C72.2985 14.4657 72.8866 15.1363 73.2821 16.099C73.9536 15.3948 74.8738 14.7593 76.1212 14.316L76.3786 14.2245L76.9043 14.2293L76.8728 10.4994H84.6962L85.0164 29.1485L77.3925 29.1944L77.1436 29.1082L77.6469 27.6583L77.1425 29.1079C77.1422 29.1078 77.1417 29.1075 77.1413 29.1073L77.132 29.1042C77.127 29.1025 77.1211 29.1002 77.1141 29.0977C77.1001 29.0927 77.0819 29.0863 77.0601 29.0781C77.0163 29.0618 76.9571 29.0388 76.8847 29.0095C76.7401 28.951 76.541 28.8658 76.305 28.7518C75.8368 28.5256 75.2042 28.178 74.5566 27.6912C73.2847 26.7353 71.7661 25.0913 71.6246 22.6371L71.6228 22.6056L71.616 22.2067C70.901 22.5116 70.0908 22.5403 69.2432 22.3363L69.1409 22.3113C69.1512 22.3494 69.1626 22.3895 69.1739 22.4318C69.2638 22.7688 69.3838 23.2379 69.5047 23.7666C69.7373 24.7838 70.0069 26.1635 70.0156 27.2396L70.0281 28.7728L61.3071 28.8493L61.3088 28.2979L55.3467 28.3458C55.3381 28.3646 55.3284 28.3867 55.3166 28.411C55.2863 28.4737 55.245 28.5544 55.1915 28.65C55.0847 28.8412 54.9283 29.0933 54.7113 29.3806C54.2766 29.9564 53.5983 30.6746 52.5931 31.3269C50.5512 32.6521 47.3403 33.5915 42.4683 32.8049L42.4305 32.7986L42.393 32.7907L42.7141 31.2904L42.4325 32.603C42.392 32.7905 42.3915 32.7905 42.391 32.7904C42.3906 32.7903 42.3897 32.79 42.389 32.7899C42.3876 32.7896 42.3861 32.7894 42.3845 32.789L42.3439 32.7797C42.3212 32.7743 42.2922 32.7673 42.2575 32.7584C42.1879 32.7405 42.0948 32.7149 41.9815 32.6801C41.7553 32.6107 41.4465 32.5041 41.083 32.347C40.3583 32.0339 39.3996 31.514 38.4417 30.6794C37.0428 29.4605 35.7167 27.6294 35.0772 24.9627C34.1512 29.4241 33.2396 34.3099 33.0221 37.1273C33.0218 37.1498 33.0217 37.1751 33.0207 37.203C33.0174 37.2953 33.0095 37.4207 32.9914 37.5659C32.958 37.8334 32.8779 38.2709 32.6541 38.7042C32.4204 39.1564 31.9566 39.7292 31.1401 39.9309C30.3669 40.1219 29.6208 39.8914 28.9983 39.5519L28.775 39.43L28.6081 39.2485C28.608 39.2483 28.6079 39.248 28.6076 39.2477C28.6069 39.247 28.6059 39.2461 28.6047 39.2448C28.6045 39.2445 28.604 39.2438 28.6039 39.2437C28.6005 39.2402 28.5951 39.2351 28.5883 39.2281C28.5676 39.2071 28.5313 39.1705 28.4791 39.1209C28.3748 39.0217 28.2075 38.8701 27.9773 38.6826C27.5165 38.3073 26.8054 37.7904 25.8415 37.2651C23.9193 36.2174 20.9795 35.128 16.9815 35.0656C16.9727 35.0655 16.9632 35.0653 16.9531 35.065C16.9263 35.0643 16.8945 35.063 16.8585 35.0605C16.7872 35.0556 16.6947 35.0459 16.5885 35.027C16.3889 34.9915 16.0744 34.9116 15.7516 34.714C15.4083 34.5039 15.0509 34.1545 14.8582 33.6268C14.6711 33.1143 14.6966 32.5905 14.8179 32.1208L14.8875 31.8517L15.0469 31.6241C15.0471 31.6238 15.0476 31.6232 15.0481 31.6226C15.0489 31.6214 15.0504 31.6194 15.0523 31.6167C15.0561 31.6112 15.062 31.6027 15.0696 31.5917C15.085 31.5698 15.1078 31.5371 15.137 31.4951C15.1954 31.4109 15.2794 31.2894 15.3808 31.1415C15.584 30.8452 15.8551 30.4455 16.129 30.0288C16.4049 29.6089 16.6744 29.1855 16.8792 28.838C16.9822 28.6632 17.0592 28.5238 17.11 28.4227C17.1228 28.3971 17.1314 28.377 17.1381 28.3626L17.3313 27.4664L17.2995 22.5571L16.2222 27.3144L16.187 27.4094L14.7446 26.8775L16.1867 27.4105C16.1866 27.4107 16.1863 27.4113 16.1861 27.4117C16.1859 27.4124 16.1856 27.4132 16.1853 27.4139C16.1847 27.4154 16.1842 27.4171 16.1836 27.4188C16.1823 27.422 16.181 27.4255 16.1796 27.4292C16.1767 27.4368 16.1732 27.4455 16.1694 27.455C16.1618 27.4741 16.1522 27.4973 16.1407 27.5237C16.1182 27.5751 16.0857 27.6452 16.0426 27.7244C15.9806 27.8382 15.8028 28.1524 15.4703 28.4014C15.2857 28.5397 14.9874 28.7072 14.5886 28.7436C14.1631 28.7825 13.7795 28.6578 13.4826 28.4604C12.9865 28.1304 12.7586 27.6205 12.6469 27.3323L12.6167 27.2543L12.5951 27.1738L11.5633 23.3101L11.5983 28.9259L1.03613 29.043L2.60359 9.91595L10.8325 9.84706L10.9393 10.3948C11.4507 10.1321 12.057 9.93879 12.7602 9.89724C12.7606 9.89722 12.7614 9.897 12.7619 9.89696C12.763 9.89687 12.7642 9.89676 12.7653 9.89667C12.7678 9.8965 12.7705 9.8963 12.7733 9.89611C12.7789 9.89572 12.7853 9.89511 12.7923 9.89469C12.8064 9.89385 12.8233 9.89323 12.8426 9.89242C12.8813 9.89081 12.9306 9.88946 12.9893 9.8893C13.1065 9.88898 13.2633 9.89336 13.4493 9.91028C13.8176 9.94377 14.3241 10.0281 14.875 10.2377C15.4326 10.4499 16.0196 10.7868 16.5433 11.2952C17.2846 10.5753 18.3969 9.80633 19.8593 9.69708C19.8734 9.69543 19.8882 9.69322 19.9039 9.69169C19.9734 9.6849 20.0583 9.67958 20.1568 9.67894C20.3537 9.67767 20.606 9.6951 20.8979 9.7569C21.4927 9.88284 22.2097 10.1845 22.9277 10.8155C23.6631 11.4619 24.3564 12.4137 24.9416 13.7932L30.1881 13.7757L30.2003 13.7277H37.3903C38.5608 12.3593 40.2103 11.04 42.5212 9.97095L42.5362 9.96415L42.5516 9.95734L43.1679 11.363C42.5516 9.95738 42.5524 9.95687 42.5533 9.95649C42.5536 9.95636 42.5547 9.95619 42.5553 9.95593C42.5565 9.95541 42.5577 9.95478 42.559 9.95423C42.5616 9.95309 42.5645 9.95182 42.5675 9.95054C42.5735 9.94799 42.5802 9.94512 42.5877 9.94203C42.6026 9.93585 42.6206 9.92862 42.6414 9.92049C42.6831 9.90421 42.7366 9.88419 42.8016 9.8618C42.9318 9.81703 43.1085 9.76235 43.3313 9.70644C43.7775 9.59448 44.4069 9.4783 45.2153 9.42775ZM28.6047 39.2448L28.6081 39.2485L28.6062 39.2465C28.6057 39.2461 28.6053 39.2454 28.6047 39.2448ZM27.5621 16.8532L29.4368 23.235L29.4555 23.2985L29.4686 23.3634C29.7025 24.5208 29.5852 25.4573 29.3654 26.1458C29.2572 26.4849 29.1272 26.754 29.0128 26.9521C28.9556 27.0511 28.9022 27.1326 28.8571 27.1965C28.8345 27.2285 28.8137 27.2562 28.7957 27.2796C28.7867 27.2912 28.7783 27.3018 28.7707 27.3113C28.7669 27.3161 28.7634 27.3207 28.7599 27.3249C28.7582 27.327 28.7564 27.3289 28.7548 27.3309C28.754 27.3319 28.753 27.333 28.7522 27.334C28.7518 27.3345 28.7513 27.3352 28.7511 27.3354L27.5684 26.355L28.7499 27.3368L28.7323 27.3581L28.7139 27.3788C26.9248 29.3713 24.2079 30.0321 22.2187 30.2575C21.1858 30.3746 20.2551 30.3844 19.5836 30.3656C19.5715 30.3652 19.5595 30.3645 19.5475 30.3641C19.5419 30.3738 19.5365 30.3837 19.5308 30.3933C19.2887 30.8041 18.9874 31.2755 18.701 31.7114C18.6228 31.8303 18.544 31.947 18.468 32.061C22.314 32.3391 25.2611 33.4518 27.3163 34.572C28.4657 35.1985 29.3332 35.8252 29.9227 36.3054C29.9495 36.3272 29.9752 36.3494 30.0008 36.3706C30.3146 33.0955 31.3134 27.911 32.2364 23.5211C32.3091 23.1753 32.3823 22.8339 32.454 22.4979L29.5186 19.5695L29.5158 19.5664L28.9014 18.9537L29.0219 18.4678L28.6391 16.8495L27.5621 16.8532ZM17.0105 31.9972L17.0295 31.9974C17.0338 31.9975 17.0381 31.9977 17.0423 31.9977C17.0404 31.9977 17.0384 31.9975 17.0364 31.9974C17.0299 31.9973 17.023 31.9972 17.0156 31.9972H17.0105ZM41.9764 29.3772C41.9768 29.3774 41.9772 29.3776 41.9776 29.3778C42.0683 29.2261 42.2632 28.8996 42.6843 28.1981L41.9764 29.3772ZM47.7927 18.9081C46.2526 18.6951 44.6164 18.8153 43.3629 19.7183C43.355 19.7282 43.3462 19.7387 43.3373 19.7501C43.2586 19.8504 43.1427 20.0071 43.0125 20.2122C42.7492 20.627 42.4442 21.2133 42.2566 21.9113C41.9136 23.1875 41.9151 24.9653 43.6661 26.9779C43.6674 26.9786 43.6687 26.9795 43.6701 26.9802C43.8172 27.0564 44.0413 27.1662 44.3288 27.2883C44.9071 27.5341 45.7228 27.8216 46.6711 27.9937C48.2325 28.2771 50.0816 28.2401 51.8694 27.2523C51.8437 27.2224 51.8173 27.1911 51.7907 27.1582C51.5339 26.8418 51.2226 26.3766 50.993 25.7673C50.5723 24.6507 50.4848 23.2012 51.2232 21.5385L51.1118 19.9015L50.471 19.6197C50.4713 19.6198 50.4716 19.6199 50.4716 19.6199C50.4715 19.6199 50.4703 19.6193 50.4679 19.6182C50.463 19.6162 50.4532 19.612 50.4389 19.6061C50.4103 19.5942 50.3633 19.5752 50.2999 19.5508C50.173 19.5018 49.9809 19.4316 49.7373 19.3537C49.2467 19.1969 48.5639 19.0147 47.7927 18.9081ZM50.0112 13.0283C47.9775 12.4948 46.4406 12.4259 45.4077 12.4905C44.7943 12.5289 44.3516 12.6147 44.0815 12.6824C43.9464 12.7164 43.8537 12.7459 43.8042 12.763C43.7939 12.7665 43.7855 12.7696 43.7789 12.772C40.3161 14.3843 38.8636 16.5542 38.232 18.2282C37.9076 19.088 37.7883 19.8499 37.7492 20.3866C37.7297 20.6541 37.7304 20.8627 37.735 20.9955C37.7372 21.0618 37.7403 21.1089 37.7424 21.1345C37.7432 21.1446 37.7438 21.1514 37.7441 21.1546C37.7442 21.1554 37.7443 21.1559 37.7444 21.1563L37.7546 21.2394L37.7543 21.3352C37.7453 23.733 38.3004 25.4399 39.0342 26.6584H39.7938C38.8308 24.6255 38.8629 22.6909 39.2859 21.1166C39.5745 20.043 40.0328 19.1711 40.4138 18.5707C40.6057 18.2683 40.7822 18.0282 40.9154 17.8585C40.9821 17.7735 41.0383 17.7055 41.0807 17.6558C41.102 17.6309 41.1199 17.6106 41.1339 17.5948C41.1408 17.587 41.1468 17.5802 41.1518 17.5747C41.1543 17.5719 41.1566 17.5695 41.1586 17.5673C41.1596 17.5662 41.1606 17.5652 41.1614 17.5642C41.1619 17.5637 41.1624 17.563 41.1626 17.5628C41.1632 17.5622 41.1636 17.5616 42.2353 18.5406L41.1637 17.5617L41.2512 17.4664L41.3533 17.387C43.5799 15.6575 46.2832 15.6011 48.215 15.8683C48.767 15.9446 49.2784 16.051 49.729 16.1634L50.0112 13.0283ZM77.8009 26.0616C77.8511 26.0844 77.8969 26.1047 77.9379 26.1223L78.3164 26.12C78.1397 26.1112 77.9678 26.0913 77.8009 26.0616ZM80.0069 17.328L76.9132 17.298C75.649 17.8127 75.1309 18.5802 74.8902 19.1706C74.7531 19.5068 74.6957 19.8164 74.6728 20.037C74.6615 20.1459 74.659 20.2287 74.6589 20.2763C74.6588 20.2955 74.6589 20.3087 74.6592 20.3151L74.6617 20.3452L74.6626 20.3928L74.6967 22.4817C74.7356 23.0849 74.947 23.6177 75.2684 24.0867C75.0747 23.6575 74.985 23.2502 74.9416 22.9574C74.9174 22.794 74.9059 22.6543 74.9004 22.5497C74.8977 22.4972 74.8964 22.4525 74.8959 22.4173C74.8958 22.4155 74.8959 22.4137 74.8959 22.412C74.8265 21.1258 75.1772 20.158 75.7805 19.4975C76.0691 19.1814 76.3759 18.9809 76.6279 18.8565C76.7534 18.7944 76.8666 18.7507 76.9595 18.7201C77.0061 18.7047 77.048 18.6926 77.0845 18.6829C77.1027 18.6781 77.1196 18.6738 77.1351 18.6702C77.1429 18.6684 77.1505 18.6667 77.1575 18.6651C77.161 18.6643 77.1645 18.6635 77.1678 18.6628C77.1694 18.6625 77.171 18.662 77.1726 18.6617C77.1734 18.6615 77.1748 18.6612 77.1752 18.6611C77.1764 18.6611 77.181 18.6779 77.4912 20.1561L77.1774 18.6608L77.3278 18.6294L80.2086 18.6084L80.2427 22.9685L80.2555 22.9679V24.5899L78.7179 24.5956L78.8 26.1172L81.8878 26.0984L81.6726 13.5678H79.9748L80.0069 17.328ZM5.43985 12.9609L4.3765 25.9371L8.50343 25.8912L8.44916 17.0134L8.44887 16.9946L8.44944 16.9759C8.45814 16.4997 8.54909 15.9834 8.80948 15.5235L8.3031 12.9368L5.43985 12.9609ZM64.4235 16.9867L64.3931 25.7531L66.7667 25.7324C66.6933 25.3129 66.6032 24.8735 66.5062 24.4493C66.3954 23.9648 66.2845 23.5323 66.2015 23.2211C66.1601 23.0659 66.126 22.9415 66.1024 22.8571C66.0906 22.815 66.0814 22.7829 66.0754 22.7618C66.0724 22.7513 66.0699 22.7434 66.0685 22.7386C66.0679 22.7362 66.0674 22.7344 66.0671 22.7335C66.067 22.733 66.0669 22.7327 66.0668 22.7326C65.88 22.1326 65.8134 21.5455 65.7895 21.1316C65.7769 20.9141 65.7754 20.7296 65.777 20.5958C65.7778 20.5287 65.7793 20.4735 65.781 20.4325C65.7818 20.412 65.7826 20.3948 65.7832 20.3815C65.7836 20.3749 65.7841 20.3692 65.7844 20.3644C65.7845 20.3621 65.7846 20.3598 65.7847 20.3579C65.7847 20.357 65.7849 20.3562 65.785 20.3554V20.3537C65.785 20.3535 65.785 20.3535 66.0407 20.3696V20.369L65.785 20.3531L65.8108 19.948L65.933 19.762L65.4386 16.9782L64.4235 16.9867ZM20.1988 12.7496L20.1096 12.755C19.5437 12.7901 18.991 13.1468 18.4947 13.6949C18.2611 13.9528 18.078 14.2124 17.9539 14.4082C17.8928 14.5046 17.8482 14.5821 17.8209 14.6313C17.8073 14.6558 17.7982 14.673 17.7937 14.6818C17.7914 14.686 17.7902 14.6883 17.7902 14.6883L17.7854 14.6976C18.3281 14.6857 18.7778 14.8777 19.0829 15.0688C19.4462 15.2962 19.7036 15.5794 19.8519 15.7628C19.9317 15.8615 19.9948 15.95 20.04 16.0171C20.0628 16.051 20.0818 16.0805 20.0965 16.1041C20.1039 16.1159 20.1102 16.1264 20.1156 16.1353C20.1183 16.1398 20.1207 16.1441 20.123 16.1478C20.124 16.1496 20.1251 16.1513 20.1261 16.1529C20.1266 16.1537 20.127 16.1547 20.1275 16.1555C20.1277 16.1558 20.1282 16.1564 20.1284 16.1566C20.1284 16.1573 20.1088 16.1691 18.8562 16.8988L20.1289 16.1577L20.3361 16.5115L20.3955 25.6896L23.8603 25.6729C23.8555 25.5917 23.8506 25.5071 23.8447 25.4192C23.7907 24.6158 23.7002 23.6644 23.6026 22.7445C23.5052 21.8272 23.4017 20.9529 23.3224 20.3072C23.2828 19.9846 23.2493 19.7196 23.2258 19.5357C23.214 19.4438 23.2048 19.3721 23.1985 19.3237C23.1953 19.2995 23.193 19.2809 23.1914 19.2687C23.1913 19.2681 23.1912 19.2675 23.1911 19.267C22.6111 15.2068 21.5249 13.6723 20.8945 13.1182C20.5886 12.8493 20.357 12.7794 20.2594 12.7587C20.2343 12.7534 20.2145 12.7505 20.2005 12.7491L20.1988 12.7496ZM56.8838 16.6967C56.5437 16.6626 56.2281 16.6765 55.996 16.7001C55.8855 16.7113 55.7986 16.7242 55.7431 16.7335L55.6704 16.7494C55.2649 16.8376 54.974 17.0152 54.7588 17.2546C54.9009 17.2555 55.0287 17.264 55.1424 17.2782C55.2276 17.2887 55.3039 17.3029 55.3717 17.3176C56.7605 17.5002 57.6034 18.2775 58.0048 19.1507C58.1885 19.5506 58.2605 19.9253 58.2892 20.1921C58.3039 20.3284 58.3081 20.4453 58.3083 20.5351C58.3084 20.5803 58.3076 20.6195 58.3063 20.6516C58.3056 20.6677 58.3048 20.6821 58.304 20.6947C58.3036 20.701 58.3033 20.7069 58.3029 20.7123C58.3027 20.715 58.3025 20.7175 58.3023 20.72C58.3022 20.7212 58.3021 20.7225 58.302 20.7237C58.302 20.7242 58.302 20.725 58.302 20.7254L56.7687 20.6066L58.3017 20.7271L58.1611 22.5095L58.0684 22.4877C58.3302 22.8812 58.4982 23.3332 58.5578 23.7918L58.5714 23.9188L58.5717 23.9205C58.6144 24.4242 58.6434 24.8673 58.6569 25.2505L59.6887 25.2422C59.6373 22.127 59.3407 20.1745 59.0605 19.0104C58.8995 18.3417 58.746 17.9418 58.6532 17.7357C58.6095 17.6386 58.5796 17.5852 58.5691 17.5673L58.56 17.5543C58.1847 17.01 57.5833 16.7668 56.8838 16.6967ZM12.9759 12.958L12.9748 12.9583L12.9552 12.9592C12.4853 12.9832 12.1055 13.2207 11.7935 13.5472C11.6403 13.7075 11.5245 13.8691 11.4485 13.9889C11.4113 14.0475 11.3856 14.0929 11.3718 14.1184C11.3682 14.1251 11.3655 14.1304 11.3636 14.134L11.1706 14.5443C11.4982 14.6444 11.7757 14.8173 11.9884 14.999C12.3199 15.2822 12.569 15.641 12.7517 16.0182L12.8259 16.181L12.8699 16.2833L12.8989 16.391L14.3294 21.748L15.5402 16.4015L14.9438 14.4493C14.6785 13.581 14.1857 13.2599 13.779 13.1052C13.5516 13.0187 13.3327 12.981 13.1703 12.9662C13.091 12.959 13.031 12.9576 12.9978 12.9577C12.9877 12.9578 12.9803 12.9579 12.9759 12.958ZM52.4005 21.2141L52.9421 21.5473C52.7288 21.416 52.5505 21.3058 52.401 21.2138L52.4005 21.2141ZM32.1864 18.4862L32.7788 20.9899C33.0713 19.6463 33.3416 18.4365 33.564 17.457C33.6171 17.2232 33.6677 17.0026 33.7149 16.7962H32.6066L32.1864 18.4862ZM74.6594 20.3185C74.6594 20.318 74.6595 20.3172 74.6594 20.3163L74.6592 20.3157C74.6592 20.3169 74.6594 20.3179 74.6594 20.3185ZM43.4348 19.631C43.4352 19.6306 43.4356 19.6302 43.4359 19.6299C43.4369 19.6288 43.4377 19.6279 43.4382 19.6273C43.4375 19.628 43.4364 19.6291 43.4348 19.631ZM70.4103 19.3838C70.4199 19.3764 70.4706 19.3317 70.5328 19.1831C70.6087 19.0017 70.655 18.7729 70.6769 18.5574C70.6871 18.4563 70.6906 18.3725 70.6916 18.3181C70.6917 18.3146 70.6916 18.3111 70.6916 18.3079C70.5222 16.9858 70.0848 16.7271 70.0301 16.695C70.0062 16.681 69.983 16.6712 69.9619 16.6635L69.6391 16.6533C69.4488 16.6472 69.1893 16.7535 68.8681 17.1191C68.7229 17.2845 68.6062 17.4587 68.5257 17.5945C68.4866 17.6607 68.4588 17.7135 68.4425 17.7454C68.4358 17.7585 68.431 17.7678 68.4285 17.7729L68.0017 18.7201C68.4233 18.7485 68.8232 18.8629 69.112 18.9611C69.4452 19.0744 69.7487 19.2077 69.9613 19.3078C70.0192 19.3351 70.0719 19.3606 70.1182 19.3835C70.3862 19.4256 70.4448 19.364 70.4103 19.3838ZM58.6066 17.6184C58.6078 17.6199 58.6091 17.6216 58.6103 17.6232L58.6123 17.6257L58.6058 17.6172C58.6061 17.6176 58.6064 17.618 58.6066 17.6184ZM55.2549 14.8482L55.3458 15.2474C55.3081 15.0819 55.2748 14.9346 55.245 14.8037L55.2549 14.8482ZM12.9861 12.9572C12.9869 12.9571 12.9877 12.9572 12.9884 12.9572C12.9893 12.9571 12.9903 12.957 12.9913 12.9569C12.9917 12.9568 12.9925 12.9569 12.9927 12.9569L12.9924 12.9566L12.9861 12.9572Z" fill="black"/>
<path d="M9.01926 26.3956L1.67188 26.4769L2.99004 10.4225L8.53331 10.376L8.9436 12.4576C8.9436 12.4576 9.8573 10.5096 11.8447 10.408C11.8447 10.408 14.5334 10.2018 15.3802 12.9801C15.3802 12.9801 16.6838 10.3499 18.9797 10.2047C18.9797 10.2047 22.4715 9.57765 23.682 18.0316C23.682 18.0316 24.5666 24.7321 24.3717 26.1778L17.8361 26.2127L17.7692 15.9123C17.7692 15.9123 16.9282 14.4753 16.0087 15.7178L13.7158 25.8556C13.7158 25.8556 13.4102 26.683 13.0523 25.7569L10.384 15.7672C9.89804 14.6378 8.98143 14.7133 8.95815 15.9849L9.02508 26.3898L9.01926 26.3956Z" fill="white"/>
<path d="M19.1209 8.65991C19.3179 8.65863 19.5701 8.67608 19.862 8.73787C20.4569 8.8638 21.174 9.1655 21.8921 9.7965C23.2655 11.0032 24.4949 13.2733 25.1424 17.4085L25.2032 17.8147L25.2055 17.8312V17.8318C25.2055 17.832 25.2057 17.8324 25.2058 17.8329C25.2059 17.8338 25.2058 17.8352 25.206 17.8369C25.2065 17.8403 25.2072 17.8453 25.208 17.8519C25.2098 17.8651 25.2124 17.8845 25.2157 17.9097C25.2223 17.9601 25.2318 18.0339 25.2438 18.128C25.2679 18.3163 25.3021 18.5864 25.3424 18.9148C25.423 19.5708 25.5285 20.4623 25.628 21.4012C25.7273 22.3375 25.8218 23.333 25.8792 24.1932C25.9329 24.9965 25.9674 25.8421 25.8946 26.3824L25.7161 27.705L16.3071 27.7552L16.2665 21.5423L15.1923 26.2914L15.1577 26.3861L13.7144 25.8557L15.1571 26.387C15.157 26.3871 15.157 26.3877 15.1568 26.3881C15.1566 26.3888 15.1562 26.3896 15.156 26.3904C15.1554 26.3919 15.1549 26.3935 15.1543 26.3952C15.153 26.3985 15.1514 26.4019 15.15 26.4057C15.1471 26.4132 15.1438 26.422 15.1401 26.4315C15.1325 26.4505 15.1228 26.4737 15.1114 26.5001C15.089 26.5515 15.0566 26.6216 15.0136 26.7008C14.9519 26.8145 14.7747 27.129 14.4427 27.3787C14.2584 27.5173 13.9597 27.686 13.5598 27.7229C13.133 27.7622 12.7482 27.6367 12.451 27.4385C11.9551 27.1077 11.7275 26.5972 11.6161 26.309L11.5863 26.2319L10.5352 22.297L10.5658 27.0212L9.66191 27.9227L0 28.0296L1.57087 8.90004L9.7949 8.83115L9.9026 9.37832C10.4147 9.11438 11.0223 8.91988 11.7272 8.87821C11.7275 8.87819 11.7284 8.87797 11.7289 8.87792C11.7301 8.87784 11.7314 8.87773 11.7326 8.87764C11.735 8.87747 11.7376 8.87726 11.7403 8.87707C11.7459 8.87669 11.7523 8.87636 11.7593 8.87594C11.7608 8.87585 11.7623 8.87603 11.7639 8.87594L11.7647 8.87566C11.7776 8.87492 11.7927 8.8741 11.8096 8.87339C11.8483 8.87177 11.8976 8.87043 11.9563 8.87027C12.0734 8.86994 12.2301 8.87437 12.416 8.89125C12.7841 8.92467 13.2904 9.00907 13.8411 9.21842C14.3985 9.4303 14.9854 9.76676 15.5089 10.2748C16.2499 9.5564 17.3606 8.78993 18.82 8.67862C18.8351 8.67683 18.8511 8.67432 18.868 8.67266C18.9375 8.66587 19.0225 8.66054 19.1209 8.65991ZM4.40655 11.9449L3.34093 24.9241L7.47611 24.8781L7.41899 15.9946V15.9759L7.41928 15.9569C7.42798 15.4814 7.51896 14.9659 7.77875 14.5067L7.26924 11.9208L4.40655 11.9449ZM19.1638 11.7303L19.0757 11.736C18.5078 11.7719 17.9541 12.1295 17.458 12.6764C17.2244 12.9339 17.0416 13.193 16.9175 13.3883C16.8563 13.4846 16.8115 13.5618 16.7842 13.6108C16.7707 13.6351 16.7618 13.6523 16.7572 13.661C16.7552 13.6649 16.754 13.6672 16.7538 13.6676L16.7484 13.678C17.2938 13.6654 17.7453 13.8582 18.051 14.05C18.4138 14.2775 18.6709 14.5607 18.8191 14.744C18.8988 14.8426 18.9619 14.931 19.007 14.9981C19.0298 15.032 19.0488 15.0615 19.0635 15.0851C19.0709 15.0969 19.0774 15.1073 19.0828 15.1163C19.0856 15.1208 19.088 15.125 19.0902 15.1288C19.0913 15.1306 19.0924 15.1325 19.0934 15.1342C19.0938 15.1349 19.0944 15.1357 19.0948 15.1364C19.095 15.1368 19.0952 15.1373 19.0954 15.1376C19.0957 15.1381 19.0961 15.1388 17.7905 15.8993L19.0959 15.1387L19.3031 15.4925L19.3625 24.6703L22.8262 24.6516C22.8214 24.5702 22.8164 24.4853 22.8105 24.397C22.7569 23.5942 22.6668 22.6435 22.5693 21.7241C22.472 20.8071 22.3686 19.933 22.2894 19.2876C22.2498 18.9652 22.2166 18.7005 22.193 18.5167C22.1813 18.4248 22.1718 18.3531 22.1655 18.3046C22.1623 18.2805 22.16 18.2622 22.1584 18.2499C22.158 18.2469 22.1575 18.2442 22.1572 18.242C21.5756 14.1867 20.4897 12.6534 19.8592 12.0995C19.5531 11.8305 19.3215 11.7604 19.2238 11.7397C19.1985 11.7343 19.1784 11.7315 19.1644 11.73L19.1638 11.7303ZM11.9432 11.939L11.9418 11.9393L11.9222 11.9401C11.4531 11.9641 11.0736 12.2015 10.7613 12.5287C10.6081 12.6893 10.4922 12.8515 10.4161 12.9715C10.3788 13.0303 10.3532 13.0758 10.3394 13.1014C10.335 13.1094 10.3319 13.1153 10.33 13.119C10.3305 13.118 10.3311 13.1169 10.3317 13.1156C10.3322 13.1145 10.3328 13.1131 10.3334 13.1119C10.3337 13.1113 10.3339 13.1105 10.3342 13.1099C10.3344 13.1096 10.3347 13.1092 10.3348 13.109L10.3345 13.1088L10.139 13.5255C10.4666 13.6253 10.7443 13.7979 10.9574 13.9797C11.2894 14.2628 11.5388 14.6219 11.7215 14.9992L11.796 15.1619L11.84 15.2643L13.2984 20.7244L14.5052 15.3879L13.9076 13.4266C13.6438 12.5608 13.1525 12.2403 12.7462 12.0858C12.519 11.9995 12.3 11.962 12.1376 11.9472C12.0584 11.94 11.9983 11.9386 11.9651 11.9387C11.9551 11.9387 11.9476 11.9389 11.9432 11.939ZM10.3294 13.1204C10.3288 13.1217 10.3282 13.1225 10.328 13.1229C10.3283 13.1224 10.3289 13.121 10.33 13.119C10.3297 13.1195 10.3296 13.12 10.3294 13.1204ZM19.2326 11.7178C19.2341 11.7176 19.2356 11.7175 19.2372 11.7173C19.2394 11.7169 19.2417 11.7165 19.244 11.7161C19.2448 11.716 19.2458 11.7154 19.2465 11.7153L19.2326 11.7178Z" fill="#A6A6A6"/>
<path d="M24.4783 14.3127L28.8227 14.2982L29.5734 17.4684L30.3737 14.243L34.6191 14.2488C34.6191 14.2488 30.9178 29.8445 30.4551 36.0428C30.4551 36.0428 30.5075 38.1737 28.7063 37.1924C28.7063 37.1924 24.5278 32.6519 15.9728 32.5183C15.9728 32.5183 15.0067 32.5241 15.2744 31.4906C15.2744 31.4906 17.4539 28.3755 17.5878 27.7572C17.5878 27.7572 23.7334 28.4626 26.5356 25.3388C26.5356 25.3388 27.2863 24.4389 26.9284 22.6534L24.4783 14.3098V14.3127Z" fill="white"/>
<path d="M36.5628 12.7171L36.1155 14.6022L36.1152 14.6028C36.1151 14.6032 36.1151 14.6039 36.1149 14.6047C36.1145 14.6065 36.1138 14.6093 36.1129 14.613C36.1112 14.6202 36.1087 14.6313 36.1053 14.6459C36.0984 14.675 36.0881 14.7187 36.0746 14.776C36.0476 14.8907 36.0077 15.06 35.9569 15.2781C35.8554 15.7143 35.7097 16.3452 35.5333 17.1217C35.1803 18.6752 34.705 20.8101 34.2156 23.1367C33.2332 27.8064 32.2209 33.1253 31.992 36.1135C31.9916 36.1359 31.9916 36.1612 31.9906 36.189C31.9871 36.2812 31.979 36.4064 31.9607 36.5516C31.927 36.8191 31.8464 37.2562 31.6226 37.689C31.3892 38.1402 30.9265 38.7127 30.1114 38.9155C29.3383 39.1078 28.5918 38.8783 27.969 38.539L27.7457 38.4174L27.578 38.2351C27.5756 38.2325 27.569 38.2257 27.5587 38.2152C27.538 38.1942 27.5015 38.1576 27.4493 38.108C27.3449 38.0088 27.1775 37.857 26.9472 37.6695C26.4861 37.2941 25.7745 36.7772 24.8103 36.2519C22.8872 35.2041 19.9465 34.1148 15.9486 34.0524C15.9386 34.0523 15.9275 34.0522 15.9156 34.0519C15.8889 34.0511 15.8572 34.0493 15.8213 34.0468C15.7501 34.0416 15.6579 34.0319 15.5519 34.0127C15.3526 33.9767 15.0388 33.8962 14.717 33.6986C14.375 33.4886 14.0182 33.1399 13.8256 32.6128C13.6383 32.1004 13.6635 31.5766 13.7852 31.1068L13.8545 30.8391L14.0131 30.6123L14.0134 30.612C14.0136 30.6117 14.0138 30.6112 14.0142 30.6106C14.0151 30.6093 14.0166 30.6074 14.0185 30.6047C14.0223 30.5992 14.0282 30.591 14.0358 30.58C14.0512 30.558 14.074 30.5251 14.1032 30.483C14.1616 30.3988 14.2455 30.2772 14.3467 30.1292C14.5497 29.8326 14.8205 29.4326 15.0941 29.0156C15.3697 28.5955 15.639 28.1719 15.8437 27.8243C15.9467 27.6494 16.0237 27.5096 16.0744 27.4084C16.0873 27.3828 16.0959 27.3627 16.1026 27.3483L16.3785 26.0739L17.7624 26.2326C17.7635 26.2328 17.765 26.2329 17.7675 26.2332C17.7746 26.234 17.7871 26.2355 17.805 26.2372C17.8409 26.2406 17.898 26.2456 17.9738 26.2514C18.1257 26.2629 18.3522 26.2769 18.6348 26.2848C19.2029 26.3007 19.9834 26.2918 20.8368 26.1949C22.5825 25.9968 24.3016 25.4673 25.3237 24.3856C25.3419 24.3514 25.3719 24.29 25.4005 24.2004C25.4652 23.9974 25.5411 23.6071 25.43 23.0086L23.3281 15.8508L22.9402 15.8522V14.3099L24.4772 14.0899L24.473 12.7784L29.1563 12.7628L29.1702 12.7069L36.5628 12.7171ZM31.0662 17.837L28.0767 17.8212L27.6067 15.8363L26.53 15.84L28.4041 22.2221L28.4229 22.2865L28.4362 22.3525C28.668 23.5088 28.5506 24.4436 28.3314 25.1309C28.2234 25.4695 28.094 25.738 27.9798 25.9358C27.9228 26.0346 27.8695 26.116 27.8244 26.1799C27.8019 26.2119 27.7813 26.2396 27.7633 26.263C27.7543 26.2746 27.7459 26.2852 27.7383 26.2947C27.7345 26.2995 27.7307 26.3041 27.7272 26.3083C27.7255 26.3105 27.7237 26.3126 27.7221 26.3146L27.7187 26.3188L26.5354 25.3387L27.7173 26.3202L27.6997 26.3415L27.6812 26.3619C25.8922 28.3562 23.1746 29.018 21.1846 29.2438C20.1514 29.3611 19.2204 29.3712 18.5487 29.3524C18.5362 29.352 18.5237 29.3513 18.5114 29.351C18.5061 29.3601 18.5009 29.3693 18.4955 29.3785C18.2539 29.7888 17.9535 30.26 17.6675 30.6959C17.589 30.8155 17.5099 30.9329 17.4336 31.0475C21.2805 31.3255 24.2285 32.4386 26.2845 33.5588C27.4342 34.1852 28.302 34.8118 28.8917 35.2919C28.9186 35.3138 28.9447 35.3359 28.9704 35.3571C29.2827 32.0817 30.2819 26.8963 31.2054 22.5062C31.6991 20.1592 32.1781 18.0077 32.5336 16.4433C32.5869 16.2087 32.6376 15.9872 32.6851 15.7802L31.5765 15.7788L31.0662 17.837ZM15.9801 30.984L15.9966 30.9843C15.9988 30.9843 16.0012 30.9842 16.0034 30.9843C15.9983 30.9841 15.9929 30.9841 15.9872 30.984H15.9801Z" fill="#A6A6A6"/>
<path d="M50.6255 10.8956L50.0581 17.1984C50.0581 17.1984 44.7622 14.8671 41.2645 17.5816C41.2645 17.5816 37.0598 22.1598 41.6574 27.1794C41.6574 27.1794 47.7913 30.8432 52.9301 26.6713C52.9301 26.6713 50.8001 31.7489 41.6864 30.2741C41.6864 30.2741 35.1538 28.8835 35.1858 20.3164C35.1858 20.3164 34.4089 13.9236 42.1375 10.3498C42.1375 10.3498 45.027 9.08698 50.6284 10.8985L50.6255 10.8956Z" fill="white"/>
<path d="M51.7161 9.81308L51.0299 10.9318L52.158 11.033L51.399 19.4652L49.4391 18.6025L49.4394 18.6028C49.439 18.6026 49.4384 18.6024 49.438 18.6022C49.433 18.6001 49.4234 18.5959 49.4093 18.59C49.3807 18.5782 49.3337 18.5591 49.2703 18.5347C49.1433 18.4858 48.9513 18.4155 48.7077 18.3377C48.217 18.1809 47.534 17.9987 46.7625 17.892C45.2222 17.6791 43.585 17.7991 42.3299 18.7026C42.3219 18.7124 42.3132 18.7229 42.3043 18.7343C42.2255 18.8346 42.1095 18.9915 41.9792 19.1967C41.7158 19.6115 41.4107 20.1978 41.223 20.8958C40.88 22.1715 40.8809 23.9489 42.6308 25.9618C42.6339 25.9635 42.637 25.9653 42.6402 25.9669C42.7874 26.0432 43.0116 26.153 43.2991 26.2751C43.8778 26.5208 44.6937 26.8082 45.6424 26.9802C47.5331 27.323 49.8465 27.1973 51.9602 25.4813L54.3495 27.2637L52.9309 26.6715L54.1719 27.1906C54.3405 27.2615 54.3485 27.2653 54.3486 27.266C54.3485 27.2664 54.3478 27.2677 54.3475 27.2685C54.3468 27.2701 54.3463 27.2719 54.3455 27.2736C54.344 27.2773 54.3422 27.2813 54.3404 27.2856C54.3367 27.2941 54.3323 27.304 54.3273 27.315C54.3174 27.3371 54.305 27.3639 54.2898 27.3953C54.2595 27.458 54.218 27.5386 54.1645 27.6343C54.0576 27.8255 53.9011 28.0777 53.684 28.3652C53.2491 28.941 52.5708 29.6595 51.5655 30.312C49.5232 31.6376 46.3119 32.5771 41.441 31.7888L41.4035 31.7826L41.3665 31.7747L41.6874 30.2743L41.406 31.587C41.3673 31.7666 41.3651 31.7742 41.3645 31.7744C41.3642 31.7743 41.363 31.774 41.3623 31.7738C41.3609 31.7735 41.3593 31.7733 41.3577 31.773C41.3544 31.7722 41.3507 31.7713 41.3466 31.7704C41.3385 31.7686 41.3287 31.7663 41.3174 31.7636C41.2947 31.7583 41.2655 31.7513 41.2307 31.7423C41.1611 31.7245 41.068 31.6991 40.9548 31.6644C40.7285 31.595 40.4198 31.4882 40.0562 31.3312C39.3312 31.0182 38.3721 30.4984 37.4138 29.6639C35.4623 27.9647 33.652 25.0757 33.6492 20.39C33.6485 20.3822 33.6476 20.3739 33.6469 20.3653C33.6413 20.2956 33.6352 20.2017 33.6313 20.0864C33.6235 19.8558 33.624 19.5372 33.6523 19.1499C33.7089 18.3767 33.878 17.3172 34.3252 16.1325C35.2346 13.7231 37.2501 10.919 41.4916 8.95773L41.5063 8.95093L41.5211 8.94441L42.1383 10.3501C41.5213 8.94467 41.5222 8.94422 41.5231 8.94384C41.5235 8.94368 41.5242 8.94324 41.5248 8.94299C41.526 8.94247 41.5272 8.94184 41.5285 8.94129C41.5311 8.94015 41.534 8.93888 41.537 8.9376C41.5431 8.93504 41.55 8.9322 41.5575 8.9291C41.5724 8.92291 41.5904 8.91568 41.6112 8.90755C41.6529 8.89125 41.7064 8.87129 41.7715 8.84887C41.9017 8.80399 42.0787 8.74928 42.3017 8.69322C42.7482 8.58099 43.3778 8.46444 44.1866 8.41368C45.457 8.33395 47.1533 8.41735 49.2601 8.92003L49.3885 7.49368L51.7161 9.81308ZM40.9488 28.3612C40.9492 28.3614 40.9496 28.3616 40.9499 28.3618C41.0417 28.2083 41.2376 27.8802 41.6581 27.1795L40.9488 28.3612ZM48.9816 12.0137C46.9492 11.48 45.4127 11.4113 44.3798 11.4762C43.7662 11.5147 43.3233 11.6007 43.0531 11.6687C42.9177 11.7027 42.8251 11.7324 42.7754 11.7495C42.7656 11.7528 42.7574 11.7556 42.751 11.758C39.2885 13.3688 37.8357 15.5392 37.2035 17.2141C36.8789 18.0742 36.7591 18.8363 36.7199 19.3733C36.7003 19.641 36.7009 19.8499 36.7054 19.9829C36.7076 20.0493 36.7107 20.0965 36.7128 20.1221C36.7136 20.1323 36.7141 20.139 36.7145 20.1422C36.7145 20.143 36.7147 20.1436 36.7147 20.1439L36.725 20.2267L36.7244 20.3223C36.7101 24.1569 38.1404 26.2236 39.4362 27.3519C39.7503 27.6254 40.065 27.8504 40.3617 28.0346C37.8307 25.1623 37.665 22.2849 38.2524 20.1005C38.5411 19.0267 38.9998 18.1548 39.3811 17.5543C39.5731 17.2519 39.7499 17.0116 39.8832 16.8419C39.9499 16.7569 40.0062 16.6891 40.0486 16.6395C40.0698 16.6146 40.0875 16.5942 40.1014 16.5785C40.1084 16.5706 40.1146 16.5639 40.1196 16.5584C40.1221 16.5556 40.1244 16.5529 40.1264 16.5507C40.1273 16.5497 40.1282 16.5488 40.129 16.5479C40.1294 16.5474 40.1302 16.5467 40.1304 16.5465C40.131 16.5458 40.1315 16.5451 41.2355 17.5543L40.1315 16.545L40.2191 16.4498L40.3211 16.3707C42.549 14.6416 45.2525 14.5853 47.1848 14.8525C47.737 14.9288 48.2487 15.0349 48.6994 15.1473L48.9816 12.0137ZM42.4469 25.8623L42.4461 25.8618C42.4456 25.8615 42.445 25.8611 42.4447 25.8609L42.4469 25.8623ZM36.7142 20.138C36.7141 20.1371 36.714 20.1362 36.7139 20.1351L36.7136 20.1334L36.7142 20.138Z" fill="#A6A6A6"/>
<path d="M58.795 15.6713C57.3285 13.552 54.3109 14.2371 54.3109 14.2371C51.3487 14.8816 51.5873 18.3886 51.5873 18.3886C53.3041 17.5496 54.0636 17.8196 54.0636 17.8196C55.859 18.0083 55.7368 19.5963 55.7368 19.5963C52.8997 18.9315 51.9103 20.5341 51.9103 20.5341C50.0742 23.7159 52.2682 25.513 52.2682 25.513C53.1063 26.4681 55.5738 25.2372 55.5738 25.2372L55.5127 25.7887L60.2034 25.751C60.2732 17.5612 58.7979 15.6713 58.7979 15.6713H58.795ZM54.7241 24.3314C54.0083 24.3372 53.4264 23.7653 53.4205 23.054C53.4147 22.3398 53.988 21.7592 54.7009 21.7563C55.4167 21.7476 55.9987 22.3224 56.0074 23.0337C56.0103 23.7449 55.44 24.3256 54.7241 24.3343V24.3314Z" fill="white"/>
<path d="M54.6489 12.6367C55.0283 12.5981 55.5584 12.5731 56.1555 12.6327C57.1462 12.7317 58.4672 13.0842 59.5107 14.1368H59.549L59.7869 14.4415C59.8557 14.5239 59.9227 14.6098 59.9881 14.6995L60.0108 14.7284L60.0094 14.7293C60.01 14.7302 60.0107 14.731 60.0114 14.7319C60.0127 14.731 60.0127 14.7309 60.0128 14.731C60.0132 14.7315 60.0141 14.7327 60.0148 14.7336C60.0161 14.7353 60.0174 14.7372 60.0188 14.7389C60.0215 14.7425 60.0244 14.7462 60.0273 14.75C60.033 14.7576 60.0392 14.7658 60.0455 14.7744C60.058 14.7916 60.0716 14.8109 60.0861 14.8322C60.1151 14.8748 60.1478 14.9259 60.1836 14.9862C60.2552 15.1067 60.339 15.2643 60.43 15.4664C60.6115 15.8703 60.8225 16.4545 61.0216 17.2817C61.4187 18.9319 61.7765 21.5826 61.7408 25.7641L61.7277 27.2729L54.0899 27.3342C53.7686 27.3901 53.4141 27.4242 53.0544 27.4048C52.5084 27.3752 51.7641 27.208 51.1858 26.605C51.1601 26.5814 51.1304 26.5546 51.0985 26.5233C51.0057 26.4323 50.8873 26.3069 50.7581 26.1477C50.5013 25.8311 50.1902 25.3657 49.9607 24.7562C49.5401 23.6393 49.4528 22.1894 50.1912 20.5257L50.0525 18.4923L51.5867 18.3886L50.0525 18.4912C50.0525 18.491 50.0523 18.4903 50.0522 18.4898C50.0522 18.4888 50.0523 18.4877 50.0522 18.4867C50.0521 18.4845 50.0518 18.4822 50.0517 18.4796C50.0513 18.4744 50.0509 18.4683 50.0505 18.4614C50.0498 18.4476 50.0491 18.4301 50.0482 18.4095C50.0466 18.3684 50.0451 18.3141 50.0446 18.2482C50.0436 18.1168 50.0468 17.9369 50.0619 17.7226C50.0917 17.2999 50.1704 16.7118 50.3748 16.0819C50.7897 14.803 51.789 13.2209 53.9703 12.741C53.9705 12.741 53.9713 12.7406 53.9717 12.7405C53.9725 12.7403 53.9734 12.7401 53.9743 12.7399C53.9762 12.7395 53.9783 12.739 53.9805 12.7385C53.9813 12.7383 53.982 12.7381 53.9828 12.7379C53.9868 12.737 53.9914 12.7362 53.9964 12.7351C54.0086 12.7325 54.0239 12.7291 54.0419 12.7254C54.0779 12.7182 54.1253 12.7092 54.1831 12.6994C54.2987 12.6796 54.4572 12.6562 54.6489 12.6367ZM55.8495 15.6861C55.509 15.6522 55.1931 15.6659 54.9609 15.6896C54.8467 15.7012 54.7578 15.7144 54.7026 15.7239C54.6765 15.7283 54.6583 15.7316 54.6489 15.7335L54.6449 15.7346L54.6381 15.736C54.2313 15.8246 53.9398 16.0031 53.7242 16.2441C53.8664 16.245 53.9944 16.2538 54.1081 16.2679C54.1925 16.2784 54.2681 16.2925 54.3355 16.307C55.7247 16.488 56.5681 17.2652 56.9702 18.1377C57.1544 18.5373 57.2269 18.912 57.2561 19.1787C57.271 19.315 57.2757 19.4319 57.276 19.5218C57.2762 19.5669 57.2753 19.6062 57.274 19.6383C57.2734 19.6543 57.2725 19.6688 57.2717 19.6814C57.2714 19.6876 57.271 19.6936 57.2706 19.699C57.2704 19.7016 57.2702 19.7042 57.27 19.7066C57.2699 19.7078 57.2698 19.7091 57.2697 19.7103C57.2697 19.7109 57.2698 19.7117 57.2697 19.712L55.7364 19.5963L57.2697 19.7137L57.1322 21.4995L57.0717 21.4851C57.3394 21.8875 57.5071 22.3614 57.5391 22.8706L57.5445 23.0149L57.5448 23.0211V23.0274C57.5466 23.4607 57.4502 23.8718 57.2771 24.2399L58.6593 24.2289C58.6079 21.115 58.3113 19.1626 58.031 17.9982C57.87 17.3292 57.7167 16.9288 57.6238 16.7224C57.5912 16.65 57.5658 16.602 57.5508 16.5747L57.5289 16.5429C57.1525 15.999 56.55 15.7561 55.8495 15.6861ZM54.4693 23.0523C54.4708 23.1753 54.5711 23.2873 54.7108 23.2899L54.7077 23.0492L54.4693 23.0523ZM54.7049 22.8C54.5751 22.8016 54.4685 22.9098 54.469 23.0398L54.7077 23.0387L54.7049 22.8Z" fill="#A6A6A6"/>
<path d="M67.445 26.2388L61.8174 26.2852L61.8552 14.4491L65.6904 14.4171L65.993 16.1213C65.993 16.1213 66.9271 14.0513 68.6526 14.1065C68.6526 14.1065 70.7885 13.7552 71.1871 17.1955C71.1871 17.1955 71.3239 20.4992 68.5624 19.8315C68.5624 19.8315 66.6885 18.8125 66.2811 19.4396C66.2811 19.4396 66.22 20.4034 66.5052 21.2947C66.5052 21.2947 67.4247 24.4533 67.4392 26.2388H67.445Z" fill="white"/>
<path d="M68.6698 12.5657C68.795 12.5596 68.9576 12.5597 69.1469 12.5787C69.5251 12.6169 70.0283 12.7326 70.5493 13.038C71.628 13.6704 72.4259 14.8896 72.6907 16.8291L72.7146 17.0191L72.7211 17.0755L72.7234 17.1322L71.1869 17.1954C72.6733 17.1342 72.7218 17.1328 72.7234 17.1333C72.7234 17.1336 72.7234 17.1343 72.7234 17.1348C72.7235 17.1357 72.7237 17.1366 72.7237 17.1376C72.7238 17.1397 72.7239 17.1422 72.724 17.1447C72.7242 17.1496 72.7244 17.1554 72.7246 17.162C72.7249 17.1753 72.7251 17.192 72.7254 17.2116C72.7259 17.2507 72.726 17.3023 72.7248 17.3644C72.7225 17.4881 72.7154 17.6572 72.6953 17.8554C72.6565 18.2385 72.5642 18.7941 72.329 19.3555C72.0938 19.9169 71.6688 20.5917 70.905 21.0308C70.1131 21.486 69.1812 21.5597 68.2001 21.3225L68.1015 21.2987C68.112 21.3374 68.1235 21.3783 68.135 21.4214C68.2249 21.7583 68.3449 22.2272 68.4658 22.7556C68.6983 23.7723 68.9679 25.1517 68.9767 26.2264L67.451 26.2386L67.4576 27.7729L60.2744 27.8322L60.3219 12.9275L66.9776 12.8719L66.9892 12.9385C67.4438 12.7196 67.975 12.5717 68.5814 12.5717C68.6086 12.5695 68.6381 12.5673 68.6698 12.5657ZM63.3877 15.9707L63.3599 24.7379L65.7273 24.7184C65.6539 24.3 65.5641 23.8618 65.4673 23.4386C65.3565 22.9542 65.2456 22.5219 65.1626 22.2107C65.1212 22.0556 65.0871 21.9314 65.0635 21.847C65.0516 21.8048 65.0425 21.7725 65.0365 21.7514C65.0334 21.7409 65.031 21.733 65.0296 21.7282C65.029 21.7258 65.0285 21.724 65.0282 21.7231C65.0281 21.7227 65.028 21.7223 65.0279 21.7222C64.841 21.1222 64.7745 20.5351 64.7506 20.1213C64.738 19.9037 64.7365 19.7192 64.7381 19.5854C64.7389 19.5183 64.7404 19.4631 64.7421 19.4221C64.7429 19.4016 64.7436 19.3844 64.7443 19.3711C64.7447 19.3645 64.7452 19.3588 64.7455 19.3541C64.7456 19.3517 64.7456 19.3495 64.7458 19.3476C64.7458 19.3466 64.746 19.3458 64.746 19.345V19.3433C64.7461 19.3432 64.746 19.3432 65.0058 19.3595V19.3589L64.746 19.3427L64.7716 18.9419L64.8972 18.7479L64.4028 15.9622L63.3877 15.9707ZM69.077 18.3706C69.3459 18.4132 69.4046 18.3517 69.3697 18.3717C69.3796 18.3639 69.4296 18.3189 69.491 18.1721C69.5668 17.9911 69.6133 17.7625 69.6351 17.547C69.6453 17.446 69.6489 17.3621 69.6499 17.3077C69.65 17.3039 69.6498 17.3001 69.6499 17.2966C69.4816 15.9727 69.0445 15.715 68.9912 15.6838C68.9284 15.647 68.8725 15.6354 68.8377 15.6319C68.8365 15.6317 68.8352 15.6314 68.834 15.6313L68.7539 15.6449L68.603 15.6401C68.4118 15.634 68.1521 15.7406 67.8312 16.1053C67.6861 16.2703 67.5698 16.4441 67.4894 16.5796C67.4502 16.6457 67.4221 16.6984 67.4058 16.7302C67.3978 16.7459 67.3929 16.7564 67.3911 16.7602L66.9631 17.708C67.3836 17.7363 67.782 17.8502 68.0696 17.9479C68.4031 18.0611 68.7069 18.1945 68.9196 18.2946C68.9777 18.322 69.0305 18.3476 69.077 18.3706ZM68.888 15.6225C68.8898 15.6222 68.8916 15.6222 68.8934 15.6219C68.8949 15.6217 68.8965 15.6213 68.898 15.6211C68.8987 15.621 68.8999 15.6209 68.9003 15.6208L68.9 15.6205L68.888 15.6225Z" fill="#A6A6A6"/>
<path d="M82.1484 11.0204H77.3907L77.4228 14.7626L75.6012 14.7481C71.8271 16.0893 72.0919 19.4047 72.0919 19.4047L72.1239 21.5356C72.3363 25.1646 76.6109 26.6452 76.6109 26.6452L82.419 26.6103L82.1513 11.0204H82.1484ZM77.6846 23.5765C75.3568 23.6985 75.3975 21.3556 75.3975 21.3556C75.2782 19.396 76.4567 19.1492 76.4567 19.1492L77.6468 19.1376L77.6846 23.5765Z" fill="white"/>
<path d="M83.6629 9.486L83.9832 28.1353L76.3559 28.181L76.1064 28.0945L76.6108 26.6452L76.1052 28.0942C76.105 28.0941 76.1045 28.0938 76.1041 28.0936C76.1033 28.0934 76.1022 28.0931 76.1013 28.0928C76.0993 28.0921 76.0972 28.0914 76.0947 28.0905C76.0898 28.0888 76.0838 28.0865 76.0768 28.084C76.0628 28.079 76.0447 28.0723 76.0228 28.0642C75.9791 28.0478 75.9199 28.0252 75.8475 27.9958C75.703 27.9372 75.5041 27.8516 75.2684 27.7376C74.8004 27.5111 74.1683 27.1632 73.521 26.6764C72.2501 25.7204 70.732 24.077 70.5885 21.6251L70.5865 21.5919L70.5862 21.5584L70.5546 19.4568C70.5542 19.4485 70.5536 19.4398 70.5532 19.4304C70.5513 19.3852 70.5497 19.3271 70.5498 19.2575C70.55 19.1185 70.5564 18.9317 70.5794 18.7089C70.625 18.2659 70.7374 17.6626 71.0062 17.0021C71.5626 15.635 72.7507 14.1322 75.0851 13.3026L75.3411 13.2116L75.8711 13.2156L75.8395 9.486H83.6629ZM76.7722 25.0513C76.8196 25.0728 76.863 25.0921 76.902 25.1088L77.2459 25.1069C77.0838 25.0972 76.9259 25.0786 76.7722 25.0513ZM78.9736 16.3092L75.8776 16.2846C74.6134 16.7992 74.0962 17.5666 73.8561 18.1566C73.7193 18.4926 73.6619 18.8019 73.6393 19.0224C73.6281 19.1313 73.6257 19.2141 73.6256 19.2617C73.6256 19.28 73.6257 19.2927 73.6259 19.2994L73.6287 19.332L73.6293 19.3817L73.6606 21.4708C73.7005 22.0712 73.9119 22.6019 74.232 23.0696C74.0396 22.6425 73.95 22.2376 73.9064 21.946C73.8819 21.7826 73.8702 21.6429 73.8646 21.5383C73.8618 21.4857 73.8603 21.441 73.8598 21.4059C73.8597 21.4031 73.8595 21.4004 73.8595 21.3977C73.7917 20.112 74.1426 19.145 74.7447 18.4849C75.0328 18.169 75.3391 17.9685 75.5909 17.8439C75.7165 17.7818 75.8296 17.738 75.9225 17.7072C75.9691 17.6918 76.0111 17.6795 76.0476 17.6698C76.0658 17.665 76.0827 17.6607 76.0981 17.6571C76.1059 17.6552 76.1135 17.6535 76.1206 17.652L76.1359 17.6486C76.1367 17.6484 76.1378 17.6481 76.1382 17.648C76.1394 17.6477 76.1407 17.6476 76.4514 19.1245L76.1408 17.6477L76.2894 17.6165L76.4414 17.6148L79.1714 17.5882L79.2348 25.0317L77.8668 25.1032L80.8545 25.085L80.6394 12.5547H78.9415L78.9736 16.3092ZM73.6262 19.3037C73.6262 19.3032 73.6262 19.3025 73.6262 19.3017L73.6259 19.3011C73.6259 19.3022 73.6262 19.3031 73.6262 19.3037Z" fill="#A6A6A6"/>
<path d="M9.01926 26.3956L1.67188 26.4769L2.99004 10.4225L8.53331 10.376L8.9436 12.4576C8.9436 12.4576 9.8573 10.5096 11.8447 10.408C11.8447 10.408 14.5334 10.2018 15.3802 12.9801C15.3802 12.9801 16.6838 10.3499 18.9797 10.2047C18.9797 10.2047 22.4715 9.57765 23.682 18.0316C23.682 18.0316 24.5666 24.7321 24.3717 26.1778L17.8361 26.2127L17.7692 15.9123C17.7692 15.9123 16.9282 14.4753 16.0087 15.7178L13.7158 25.8556C13.7158 25.8556 13.4102 26.683 13.0523 25.7569L10.384 15.7672C9.89804 14.6378 8.98143 14.7133 8.95815 15.9849L9.02508 26.3898L9.01926 26.3956Z" fill="white"/>
<path d="M19.1246 9.17246C19.2884 9.1714 19.5037 9.18569 19.756 9.23909C20.2678 9.34743 20.9037 9.61041 21.553 10.1809C22.7991 11.2758 23.9967 13.4102 24.6351 17.4864L24.6953 17.887L24.6959 17.8927L24.6968 17.8981L23.6811 18.0316C24.6966 17.8981 24.6967 17.898 24.6968 17.8981V17.8986C24.6968 17.8989 24.697 17.8991 24.697 17.8995C24.6972 17.9004 24.6971 17.9018 24.6973 17.9035C24.6978 17.9068 24.6985 17.9117 24.6993 17.9182C24.701 17.9312 24.7037 17.9507 24.707 17.9757C24.7135 18.0258 24.7228 18.0992 24.7348 18.1929C24.7588 18.3804 24.793 18.6495 24.8332 18.9768C24.9135 19.6311 25.0187 20.5198 25.1179 21.455C25.2169 22.3885 25.3106 23.3766 25.3674 24.2272C25.4216 25.0399 25.4509 25.8335 25.3861 26.3141L25.2674 27.1949L16.8177 27.24L16.7515 17.0725L14.6992 26.146L14.6762 26.2089L13.7149 25.8556L14.6759 26.2095L14.6757 26.2103C14.6755 26.2108 14.6753 26.2112 14.6751 26.2117C14.6747 26.2128 14.6741 26.214 14.6737 26.2151C14.6728 26.2174 14.6719 26.22 14.6708 26.2228C14.6687 26.2284 14.6661 26.235 14.6632 26.2423C14.6573 26.2569 14.6498 26.2752 14.6407 26.2962C14.6228 26.3374 14.5969 26.3938 14.5626 26.457C14.51 26.5538 14.3754 26.7881 14.134 26.9696C14.0012 27.0695 13.7911 27.1869 13.5128 27.2125C13.2168 27.2398 12.9482 27.1534 12.7371 27.0126C12.3803 26.7747 12.2001 26.3937 12.096 26.1244L12.0761 26.0731L9.9963 18.287L10.0514 26.8105L9.44729 27.4127L0.558594 27.5111L2.04478 9.40834L9.37369 9.3471L9.53766 10.1789L9.54249 10.2047C10.1033 9.79133 10.8426 9.44177 11.7669 9.38906L11.7678 9.38878H11.7706C11.7723 9.38866 11.7741 9.38835 11.776 9.38821C11.7802 9.38793 11.785 9.38769 11.7905 9.38736C11.8015 9.38671 11.8152 9.38606 11.8314 9.38538C11.8639 9.38402 11.9065 9.38269 11.9582 9.38254C12.0613 9.38226 12.202 9.38627 12.3702 9.40154C12.704 9.43185 13.1622 9.50843 13.6589 9.69724C14.2842 9.93495 14.9535 10.347 15.5012 11.0261C15.5202 11.0045 15.5393 10.9827 15.5588 10.9611C16.2428 10.2071 17.3579 9.30046 18.8694 9.18862C18.8842 9.18676 18.9006 9.18442 18.9185 9.18267C18.9734 9.1773 19.0427 9.173 19.1246 9.17246ZM3.93363 11.4363L2.78333 25.4426L7.9935 25.3847L7.93326 15.9915L7.93297 15.9787L7.93326 15.9662C7.94106 15.5399 8.02361 15.1114 8.23334 14.7468C8.26061 14.6994 8.29019 14.6525 8.32256 14.6068L7.69115 11.4048L3.93363 11.4363ZM19.1254 11.2166L19.1024 11.2208L19.0436 11.2245C18.282 11.2727 17.6128 11.7426 17.0777 12.3325C16.8198 12.6168 16.6195 12.9007 16.4841 13.1138C16.4169 13.2195 16.3673 13.3057 16.3357 13.3625C16.3201 13.3907 16.3089 13.4115 16.3025 13.4237C16.3004 13.4278 16.2987 13.431 16.2977 13.4331L15.7487 14.5402C15.9638 14.3853 16.2062 14.2727 16.4773 14.2207C17.0202 14.1163 17.4759 14.2945 17.7782 14.484C18.0741 14.6696 18.29 14.9052 18.4198 15.0658C18.4884 15.1507 18.5426 15.2266 18.5809 15.2835C18.6003 15.3123 18.6162 15.337 18.6281 15.3561C18.6341 15.3656 18.639 15.3739 18.6432 15.3808C18.6452 15.3842 18.6472 15.3874 18.6489 15.3901C18.6496 15.3915 18.6505 15.3927 18.6511 15.3938C18.6515 15.3944 18.6517 15.395 18.652 15.3955C18.6521 15.3958 18.6525 15.3962 18.6526 15.3964C18.6519 15.3972 18.626 15.4129 17.8211 15.8817L18.6528 15.3969L18.7909 15.6328L18.8529 25.1851L23.3652 25.161C23.3569 24.9303 23.3434 24.6631 23.3234 24.363C23.2691 23.5506 23.1785 22.5924 23.0807 21.6702C22.9831 20.7496 22.8791 19.8727 22.7997 19.2255C22.76 18.902 22.7264 18.6363 22.7028 18.4518C22.691 18.3596 22.6818 18.2876 22.6755 18.2388C22.6723 18.2145 22.6697 18.1957 22.6681 18.1833C22.6677 18.1806 22.6675 18.1783 22.6672 18.1762L22.6104 17.7974C22.0084 13.9565 20.9377 12.3635 20.1993 11.7147C19.8244 11.3853 19.5116 11.2767 19.3309 11.2384C19.2369 11.2185 19.1697 11.2161 19.1379 11.2163C19.1328 11.2163 19.1286 11.2165 19.1254 11.2166ZM11.9641 11.4264C11.9407 11.4264 11.9246 11.4269 11.9173 11.4272C11.9175 11.4272 11.9178 11.4272 11.9181 11.4272L11.9093 11.4278L11.8965 11.4284C11.2522 11.4613 10.7571 11.7906 10.3899 12.1754C10.2082 12.3658 10.072 12.5561 9.98238 12.6976C9.93808 12.7676 9.90659 12.8235 9.88775 12.8584C9.87843 12.8756 9.87217 12.8875 9.86928 12.8933C9.86945 12.8929 9.86965 12.8925 9.86985 12.8921L9.87013 12.8913L9.36773 13.9618C9.36819 13.9617 9.36868 13.9619 9.36915 13.9618C9.88307 13.8975 10.3219 14.1114 10.6243 14.3692C10.8906 14.5963 11.1003 14.8931 11.2594 15.2214L11.3245 15.364L11.3538 15.4321L11.3728 15.5041L13.3401 22.8691L15.0368 15.3686L14.3994 13.2774C14.0823 12.2368 13.4599 11.8086 12.9295 11.607C12.6482 11.5001 12.3812 11.4547 12.1844 11.4369C12.0874 11.4281 12.0114 11.4262 11.9641 11.4264ZM19.1487 11.2123C19.1496 11.2122 19.1506 11.2122 19.1515 11.212C19.1529 11.2118 19.1544 11.2114 19.1558 11.2112C19.1566 11.2111 19.1577 11.211 19.1581 11.2109L19.1578 11.2106L19.1487 11.2123Z" fill="white"/>
<path d="M24.4783 14.3127L28.8227 14.2982L29.5734 17.4684L30.3737 14.243L34.6191 14.2488C34.6191 14.2488 30.9178 29.8445 30.4551 36.0428C30.4551 36.0428 30.5075 38.1737 28.7063 37.1924C28.7063 37.1924 24.5278 32.6519 15.9728 32.5183C15.9728 32.5183 15.0067 32.5241 15.2744 31.4906C15.2744 31.4906 17.4539 28.3755 17.5878 27.7572C17.5878 27.7572 23.7334 28.4626 26.5356 25.3388C26.5356 25.3388 27.2863 24.4389 26.9284 22.6534L24.4783 14.3098V14.3127Z" fill="white"/>
<path d="M35.9138 13.2286L35.6157 14.4842V14.4848C35.6156 14.4852 35.6154 14.4859 35.6152 14.4868C35.6147 14.4886 35.614 14.4914 35.6132 14.495C35.6114 14.5024 35.6087 14.5135 35.6052 14.5282C35.5983 14.5575 35.5881 14.6014 35.5745 14.6589C35.5475 14.7739 35.5077 14.9437 35.4569 15.1621C35.3551 15.5991 35.209 16.2309 35.0323 17.0083C34.679 18.5636 34.2031 20.7012 33.713 23.0312C32.7306 27.7013 31.709 33.0619 31.4789 36.0875C31.4786 36.1103 31.4786 36.1381 31.4774 36.17C31.4745 36.2502 31.4674 36.3603 31.4513 36.4878C31.4211 36.7276 31.3507 37.0973 31.1663 37.454C30.9754 37.823 30.6129 38.2625 29.987 38.4182C29.3892 38.5669 28.7804 38.3972 28.2152 38.0893L28.0663 38.0082L27.9529 37.8846C27.9532 37.8849 27.9533 37.8853 27.9535 37.8855C27.9529 37.8849 27.952 37.8838 27.9507 37.8824C27.9463 37.8778 27.938 37.8691 27.9257 37.8566C27.901 37.8314 27.8603 37.7909 27.8037 37.7372C27.6904 37.6296 27.5133 37.4689 27.2721 37.2725C26.7895 36.8797 26.0519 36.3445 25.0567 35.8022C23.0699 34.7197 20.048 33.604 15.9566 33.5401C15.9491 33.54 15.9406 33.5398 15.9313 33.5395C15.9112 33.5389 15.8865 33.5379 15.8583 33.5359C15.8022 33.5318 15.7285 33.524 15.6434 33.5086C15.4819 33.4795 15.2353 33.4152 14.9862 33.2623C14.7237 33.1011 14.4541 32.8367 14.3082 32.4373C14.1657 32.0476 14.1792 31.6342 14.2826 31.2349L14.3289 31.0566L14.4343 30.9057L14.4346 30.9052C14.4348 30.9049 14.4353 30.9044 14.4357 30.9037C14.4367 30.9024 14.4381 30.9003 14.44 30.8975C14.4439 30.8919 14.4499 30.8834 14.4576 30.8723C14.4732 30.8499 14.4964 30.8169 14.5258 30.7745C14.5847 30.6895 14.6692 30.567 14.7711 30.4181C14.9752 30.1198 15.2478 29.7167 15.5238 29.296C15.8011 28.8732 16.0757 28.4417 16.2865 28.0837C16.3924 27.9039 16.4757 27.7533 16.5337 27.6377C16.5737 27.558 16.5895 27.5184 16.5934 27.5096L16.7824 26.6361L17.7048 26.7418L17.7133 26.7429C17.7219 26.7439 17.7363 26.7453 17.7559 26.7472C17.7951 26.751 17.8555 26.7565 17.935 26.7625C18.0941 26.7746 18.3286 26.7889 18.6204 26.7971C19.2058 26.8135 20.0117 26.8044 20.8951 26.7041C22.696 26.4997 24.5933 25.9411 25.7396 24.692C25.7446 24.6841 25.7517 24.6737 25.7595 24.6603C25.7914 24.605 25.843 24.5036 25.8902 24.3558C25.9807 24.072 26.0641 23.5887 25.9308 22.892L23.7123 15.3368L23.454 15.3379V14.3099L24.4776 14.1633L24.4747 13.2907L29.5585 13.2739L29.5721 13.2201L35.9138 13.2286ZM30.5675 17.714L28.5764 17.7032L28.0126 15.3226L25.845 15.3297L27.9112 22.3661L27.9239 22.4089L27.9328 22.4529C28.1469 23.5211 28.0358 24.3681 27.8421 24.9755C27.7463 25.2758 27.6326 25.5108 27.5349 25.6801C27.4861 25.7647 27.4412 25.8331 27.4045 25.885C27.3862 25.911 27.37 25.9329 27.3562 25.9508C27.3493 25.9597 27.343 25.9677 27.3374 25.9746C27.3347 25.9781 27.3319 25.9813 27.3295 25.9843C27.3283 25.9857 27.3272 25.9872 27.3261 25.9885C27.3255 25.9892 27.3249 25.9899 27.3244 25.9905C27.3241 25.9908 27.3236 25.9915 27.3235 25.9916L26.5355 25.3387L27.3227 25.9925L27.311 26.0067L27.2988 26.0203C25.6393 27.8702 23.0819 28.5127 21.1264 28.7346C20.1232 28.8485 19.2174 28.8584 18.563 28.8401C18.4398 28.8366 18.3253 28.8317 18.2203 28.8268C18.1677 28.9216 18.1114 29.0197 18.0529 29.1191C17.8175 29.5189 17.5221 29.982 17.2379 30.4153C16.9706 30.8228 16.7071 31.2119 16.5033 31.5102C20.7103 31.6614 23.8843 32.8347 26.0385 34.0085C27.1573 34.618 27.999 35.2265 28.5673 35.6891C28.8515 35.9205 29.0677 36.1158 29.2163 36.257C29.2546 36.2933 29.2876 36.3268 29.3169 36.3557C29.344 36.3681 29.3682 36.3786 29.39 36.3871C29.401 36.3423 29.4114 36.2904 29.4187 36.2329C29.4258 36.1759 29.4291 36.127 29.4303 36.0945L29.4309 36.0659L29.4297 36.0171L29.4337 35.9667C29.671 32.7883 30.7276 27.2728 31.7082 22.6116C32.2012 20.268 32.6796 18.119 33.0347 16.5564C33.1462 16.0654 33.2457 15.6321 33.3296 15.2687L31.1748 15.2656L30.5675 17.714ZM15.9776 31.4963L15.9887 31.4966H15.9927C15.9896 31.4965 15.9859 31.4963 15.9816 31.4963H15.9776Z" fill="white"/>
<path d="M50.6255 10.8956L50.0581 17.1984C50.0581 17.1984 44.7622 14.8671 41.2645 17.5816C41.2645 17.5816 37.0598 22.1598 41.6574 27.1794C41.6574 27.1794 47.7913 30.8432 52.9301 26.6713C52.9301 26.6713 50.8001 31.7489 41.6864 30.2741C41.6864 30.2741 35.1538 28.8835 35.1858 20.3164C35.1858 20.3164 34.4089 13.9236 42.1375 10.3498C42.1375 10.3498 45.027 9.08698 50.6284 10.8985L50.6255 10.8956Z" fill="white"/>
<path d="M51.3532 10.1756L50.8966 10.9198L51.6465 10.987L50.9514 18.7082L49.646 18.1332L49.6465 18.1338C49.6456 18.1334 49.6435 18.1326 49.6403 18.1312C49.6336 18.1284 49.622 18.1234 49.6059 18.1168C49.5736 18.1034 49.523 18.0826 49.4556 18.0567C49.3204 18.0045 49.1186 17.931 48.8642 17.8497C48.3534 17.6864 47.6411 17.4959 46.8333 17.3842C45.2156 17.1605 43.3909 17.2748 41.9718 18.33C41.9525 18.3532 41.928 18.3826 41.8999 18.4184C41.8121 18.5303 41.6861 18.7009 41.5455 18.9222C41.2624 19.368 40.9314 20.0022 40.7269 20.763C40.3395 22.2038 40.3723 24.1882 42.3074 26.37C42.3351 26.3849 42.367 26.4027 42.4034 26.4216C42.5609 26.5031 42.797 26.6187 43.0979 26.7465C43.7022 27.0031 44.5554 27.3038 45.5506 27.4842C47.5365 27.8443 50.0185 27.7182 52.2844 25.8787L53.8758 27.0658L52.9309 26.6714L53.8752 27.0675C53.8751 27.0678 53.8746 27.0686 53.8744 27.0692C53.8739 27.0703 53.8735 27.0716 53.8729 27.0729C53.8718 27.0755 53.8704 27.0784 53.869 27.0816C53.8661 27.0881 53.8627 27.096 53.8587 27.1049C53.8507 27.1227 53.8402 27.1454 53.8272 27.1724C53.801 27.2264 53.7644 27.2983 53.7161 27.3847C53.6195 27.5574 53.4756 27.7896 53.2739 28.0566C52.87 28.5915 52.2341 29.2666 51.2853 29.8824C49.3668 31.1277 46.2894 32.0542 41.5234 31.283L41.4984 31.2787L41.4737 31.2736L41.6873 30.2743L41.4722 31.2733C41.472 31.2733 41.4713 31.2732 41.4708 31.2731C41.4698 31.2728 41.4686 31.2725 41.4674 31.2722C41.4649 31.2717 41.4621 31.271 41.4589 31.2702C41.4524 31.2688 41.4443 31.2671 41.4347 31.2648C41.4155 31.2603 41.39 31.2541 41.3588 31.2461C41.2965 31.2301 41.2109 31.2067 41.1057 31.1744C40.8953 31.1099 40.6046 31.0095 40.2603 30.8608C39.573 30.5641 38.6617 30.0706 37.7514 29.278C35.9076 27.6726 34.1596 24.9172 34.1626 20.3673C34.1615 20.3546 34.1599 20.3404 34.1587 20.3247C34.1537 20.2624 34.1484 20.1764 34.1447 20.0693C34.1375 19.855 34.1375 19.5547 34.1643 19.1873C34.218 18.4535 34.379 17.4436 34.8057 16.3131C35.6692 14.0254 37.592 11.3257 41.7075 9.42262L41.7175 9.41809L41.7274 9.41384L42.1383 10.35C41.7273 9.41395 41.728 9.41353 41.7285 9.41327C41.7288 9.41316 41.7293 9.41287 41.7297 9.4127C41.7305 9.41233 41.7316 9.41197 41.7325 9.41157C41.7343 9.41078 41.7363 9.40993 41.7385 9.40902C41.743 9.40712 41.7482 9.40493 41.7541 9.4025C41.766 9.39759 41.7808 9.39153 41.7985 9.38463C41.8338 9.37083 41.8807 9.35344 41.9391 9.33332C42.0559 9.29308 42.2186 9.24224 42.427 9.18986C42.8441 9.08502 43.4427 8.97378 44.219 8.92506C45.5489 8.84161 47.3876 8.94314 49.7176 9.56438L49.802 8.62965L51.3532 10.1756ZM49.5314 11.6329C47.2405 10.9814 45.5085 10.8918 44.3474 10.9646C43.7012 11.0052 43.2271 11.0966 42.9274 11.1719C42.7775 11.2096 42.6708 11.2434 42.6078 11.2652C42.581 11.2744 42.562 11.2813 42.5509 11.2856C38.9509 12.9555 37.4017 15.2344 36.7227 17.0335C36.3776 17.9478 36.2497 18.7597 36.2075 19.3361C36.1865 19.6238 36.1871 19.8508 36.1922 20.0001C36.1947 20.0746 36.1983 20.1296 36.201 20.1626C36.2023 20.1791 36.2033 20.1902 36.2038 20.1955C36.204 20.1977 36.2041 20.1989 36.2041 20.1989L36.2112 20.2564L36.2109 20.3202C36.196 24.3048 37.6915 26.5127 39.0986 27.738C39.8174 28.3638 40.5372 28.7534 41.0738 28.9851C41.3414 29.1007 41.5607 29.1757 41.7075 29.2207C41.7808 29.2432 41.8359 29.2581 41.8692 29.2667C41.8755 29.2683 41.881 29.2695 41.8857 29.2706C43.1726 29.4769 44.3009 29.544 45.2886 29.513C45.2537 29.507 45.2188 29.5014 45.1843 29.4952C44.0037 29.2811 43.0022 28.927 42.2957 28.6271C41.9414 28.4766 41.6581 28.3384 41.46 28.2358C41.3609 28.1845 41.2828 28.1419 41.2276 28.1111C41.2 28.0957 41.1782 28.0832 41.1622 28.0739C41.1542 28.0693 41.1476 28.0653 41.1426 28.0623C41.1401 28.0608 41.1378 28.0597 41.1361 28.0586C41.1352 28.0581 41.1344 28.0576 41.1338 28.0572C41.1335 28.057 41.1331 28.0567 41.1329 28.0566L41.6581 27.1795L41.1321 28.0561L41.0034 27.9792L40.9022 27.8687C38.3461 25.0779 38.19 22.3104 38.7485 20.2334C39.0204 19.2223 39.4534 18.3979 39.815 17.8284C39.9967 17.5423 40.1631 17.316 40.2873 17.1579C40.3494 17.0788 40.4014 17.0164 40.4396 16.9717C40.4587 16.9493 40.4743 16.9312 40.4862 16.9178C40.4921 16.9111 40.4972 16.9055 40.5012 16.9011C40.5032 16.8989 40.5049 16.897 40.5064 16.8954C40.5071 16.8946 40.508 16.8938 40.5086 16.8931C40.5089 16.8928 40.5093 16.8922 40.5095 16.892C40.5108 16.8924 40.5366 16.9152 41.2509 17.5682L40.51 16.8911L40.5683 16.8279L40.6365 16.7749C42.7044 15.1701 45.2392 15.1006 47.1143 15.3599C47.9002 15.4686 48.6023 15.6392 49.1561 15.8016L49.5314 11.6329ZM42.0212 18.2713L42.0218 18.2707C42.0222 18.2703 42.0224 18.2698 42.0227 18.2696L42.0212 18.2713ZM42.5393 11.2901C42.5396 11.29 42.5407 11.2897 42.5424 11.289L42.543 11.2884C42.5401 11.2895 42.5389 11.2902 42.5393 11.2901Z" fill="white"/>
<path d="M58.795 15.6713C57.3285 13.552 54.3109 14.2371 54.3109 14.2371C51.3487 14.8816 51.5873 18.3886 51.5873 18.3886C53.3041 17.5496 54.0636 17.8196 54.0636 17.8196C55.859 18.0083 55.7368 19.5963 55.7368 19.5963C52.8997 18.9315 51.9103 20.5341 51.9103 20.5341C50.0742 23.7159 52.2682 25.513 52.2682 25.513C53.1063 26.4681 55.5738 25.2372 55.5738 25.2372L55.5127 25.7887L60.2034 25.751C60.2732 17.5612 58.7979 15.6713 58.7979 15.6713H58.795ZM54.7241 24.3314C54.0083 24.3372 53.4264 23.7653 53.4205 23.054C53.4147 22.3398 53.988 21.7592 54.7009 21.7563C55.4167 21.7476 55.9987 22.3224 56.0074 23.0337C56.0103 23.7449 55.44 24.3256 54.7241 24.3343V24.3314Z" fill="white"/>
<path d="M54.6992 13.1466C55.054 13.1105 55.5486 13.0873 56.103 13.1426C57.0742 13.2396 58.336 13.5933 59.2865 14.6495H59.2964L59.3811 14.758C59.4484 14.8379 59.5137 14.9217 59.5772 15.0092L59.6039 15.0433L59.6025 15.0441C59.6029 15.0447 59.6032 15.0455 59.6036 15.0461C59.6051 15.0451 59.6052 15.0449 59.6053 15.045C59.6056 15.0453 59.606 15.0464 59.6065 15.0469C59.6073 15.0481 59.6084 15.0492 59.6093 15.0503C59.6112 15.0528 59.6132 15.0556 59.6153 15.0583C59.6193 15.0637 59.6237 15.0695 59.6283 15.0759C59.6376 15.0886 59.6482 15.1033 59.6596 15.1201C59.6825 15.1538 59.7095 15.196 59.74 15.2474C59.8011 15.3503 59.8762 15.4907 59.9597 15.6763C60.1265 16.0472 60.3279 16.6007 60.5206 17.4015C60.9054 19.0003 61.2608 21.6072 61.2254 25.7597L61.2168 26.7647L54.3659 26.82L54.3733 26.7514C53.9872 26.8447 53.5324 26.9176 53.0806 26.8931C52.6052 26.8674 52.0098 26.7242 51.5549 26.2499C51.5286 26.2263 51.4955 26.1956 51.4572 26.158C51.3765 26.0789 51.2713 25.968 51.1557 25.8254C50.9255 25.5418 50.646 25.1234 50.4399 24.576C50.0115 23.4385 49.9523 21.8753 51.0204 20.0243L51.0281 20.0109L51.036 19.9982L51.9081 20.534C51.0361 19.9981 51.0365 19.9974 51.0369 19.9968C51.0371 19.9965 51.0375 19.996 51.0377 19.9956C51.0383 19.9947 51.0389 19.9937 51.0394 19.9928C51.0406 19.9909 51.0418 19.9889 51.0431 19.9868C51.0457 19.9827 51.0485 19.9781 51.0517 19.9732C51.0581 19.9634 51.0659 19.9521 51.0747 19.9392C51.0923 19.9135 51.1148 19.8819 51.1426 19.8456C51.1808 19.7958 51.2291 19.7368 51.2881 19.6716L50.6666 19.9755L50.5632 18.4579L51.585 18.3887L50.5632 18.457C50.5632 18.4568 50.5632 18.4562 50.5632 18.4559C50.5631 18.4553 50.5629 18.4546 50.5629 18.4539C50.5628 18.4523 50.5627 18.4505 50.5626 18.4485C50.5624 18.4445 50.5621 18.4395 50.5618 18.4338C50.5611 18.4223 50.5605 18.4075 50.5598 18.3895C50.5583 18.3535 50.5568 18.3045 50.5564 18.2444C50.5555 18.1244 50.5582 17.958 50.5723 17.7587C50.6001 17.3641 50.6736 16.8193 50.8616 16.24C51.2417 15.0685 52.1347 13.6678 54.0823 13.2407L54.0831 13.2404C54.0837 13.2403 54.0844 13.24 54.0851 13.2399C54.0865 13.2395 54.088 13.2391 54.0897 13.2387C54.0932 13.2379 54.0977 13.2372 54.1027 13.2362C54.1127 13.234 54.1257 13.2311 54.1414 13.2279C54.1728 13.2216 54.2157 13.2137 54.2684 13.2047C54.3739 13.1867 54.5206 13.1648 54.6992 13.1466ZM55.899 15.1762C55.5157 15.138 55.164 15.1538 54.9072 15.1799C54.7801 15.1928 54.6795 15.2079 54.6142 15.219C54.5817 15.2246 54.5581 15.2291 54.5446 15.2318C54.5398 15.2328 54.5362 15.2333 54.5341 15.2338L54.5316 15.2346L54.527 15.2355C53.5222 15.4541 53.0549 16.1224 52.8135 16.8603C53.0183 16.8154 53.2046 16.7874 53.3727 16.7718C53.6465 16.7465 53.8693 16.7548 54.0428 16.7764C54.1237 16.7864 54.1931 16.7998 54.2514 16.8132C55.4696 16.9668 56.1697 17.6311 56.502 18.3518C56.657 18.6882 56.7188 19.006 56.7438 19.2344C56.7565 19.3505 56.7603 19.4494 56.7605 19.5239C56.7607 19.5612 56.7601 19.593 56.7591 19.6183C56.7586 19.6309 56.758 19.642 56.7574 19.6514C56.7571 19.6561 56.7568 19.6604 56.7566 19.6642C56.7564 19.6661 56.7564 19.6682 56.7563 19.6699C56.7562 19.6706 56.7561 19.6714 56.756 19.6721C56.756 19.6725 56.756 19.6734 56.756 19.6736L55.7347 19.5964L56.756 19.6747L56.6642 20.864L55.5003 20.5913C54.3045 20.3111 53.6035 20.5258 53.2363 20.7194C53.0422 20.8218 52.9133 20.9332 52.8393 21.0086C52.8079 21.0407 52.7868 21.066 52.7751 21.0806C52.0303 22.3918 52.1498 23.306 52.3574 23.8573C52.4702 24.1569 52.6243 24.3868 52.7481 24.5394C52.8095 24.6151 52.8614 24.6695 52.8936 24.701C52.9082 24.7154 52.9185 24.7247 52.9235 24.7291L52.9811 24.7765L53.0226 24.8238C53.0415 24.8316 53.0908 24.847 53.1917 24.8524C53.2174 24.8538 53.2444 24.8541 53.2724 24.8539C52.7424 24.4349 52.4 23.7897 52.3941 23.0624C52.3837 21.7882 53.4066 20.7442 54.6861 20.7344C55.9344 20.7193 56.9488 21.6891 57.0251 22.903L57.0294 23.0212V23.0295C57.0311 23.4559 56.9169 23.856 56.7168 24.2004L56.6551 24.7575L59.1765 24.737C59.1507 21.2948 58.8352 19.1526 58.5286 17.8786C58.3613 17.1834 58.1984 16.7524 58.0907 16.513C58.043 16.4068 58.0058 16.3387 57.9847 16.302L57.9501 16.2519C57.4545 15.5357 56.6787 15.2541 55.899 15.1762ZM54.7072 22.7783H54.7029C54.5606 22.7789 54.4414 22.8942 54.4426 23.0456C54.4438 23.1918 54.5627 23.3108 54.7137 23.3096L54.7458 23.3093C54.8799 23.2904 54.9801 23.1777 54.9805 23.04C54.9754 22.889 54.8523 22.7763 54.7111 22.778L54.7072 22.7783ZM52.6072 18.3232L52.6075 18.3238C52.6075 18.3235 52.6072 18.323 52.6072 18.3223V18.3232Z" fill="white"/>
<path d="M67.445 26.2388L61.8174 26.2852L61.8552 14.4491L65.6904 14.4171L65.993 16.1213C65.993 16.1213 66.9271 14.0513 68.6526 14.1065C68.6526 14.1065 70.7885 13.7552 71.1871 17.1955C71.1871 17.1955 71.3239 20.4992 68.5624 19.8315C68.5624 19.8315 66.6885 18.8125 66.2811 19.4396C66.2811 19.4396 66.22 20.4034 66.5052 21.2947C66.5052 21.2947 67.4247 24.4533 67.4392 26.2388H67.445Z" fill="white"/>
<path d="M68.6943 13.0775C68.7974 13.0724 68.9343 13.0723 69.0949 13.0885C69.4158 13.1209 69.844 13.2193 70.2884 13.4798C71.2251 14.0288 71.9789 15.138 72.2037 17.0781L72.2083 17.1155L72.2097 17.1532L71.1864 17.1955C72.1632 17.1552 72.2076 17.1537 72.2097 17.1541C72.2097 17.1542 72.2097 17.1549 72.2097 17.1552C72.2097 17.1558 72.2099 17.1565 72.21 17.1572C72.21 17.1587 72.2099 17.1604 72.21 17.1623C72.2101 17.1661 72.2104 17.171 72.2105 17.1765C72.2108 17.1874 72.2111 17.2014 72.2114 17.2184C72.2118 17.2525 72.2119 17.2988 72.2108 17.3551C72.2087 17.4672 72.202 17.6222 72.1835 17.8042C72.1475 18.1592 72.063 18.6601 71.8545 19.1579C71.6459 19.6558 71.2823 20.2223 70.6482 20.5868C69.9953 20.9621 69.2043 21.0384 68.3203 20.8247L68.1896 20.7929L68.0725 20.7294C68.0724 20.7293 68.072 20.7292 68.0714 20.7289L68.0711 20.7286C68.0693 20.7276 68.0658 20.7258 68.0609 20.7232C68.0508 20.7179 68.0345 20.7093 68.0128 20.6982C67.9693 20.6759 67.9046 20.6435 67.8253 20.6061C67.6914 20.543 67.5245 20.4707 67.3516 20.4068C67.3732 20.5559 67.4026 20.7089 67.4428 20.8573L67.48 20.984L67.4843 20.9968L67.488 21.0098L67.4883 21.0101V21.0109C67.4884 21.0115 67.4889 21.0123 67.4891 21.0132C67.4897 21.0151 67.4904 21.0178 67.4914 21.0212C67.4934 21.028 67.496 21.0378 67.4996 21.0504C67.5068 21.0756 67.5172 21.1122 67.5303 21.1589C67.5565 21.2524 67.5936 21.3868 67.638 21.5533C67.7267 21.8859 67.8453 22.3488 67.9645 22.8699C68.1968 23.8853 68.4544 25.2165 68.4627 26.2304L67.4485 26.2386L67.4527 27.2606L60.7891 27.3156L60.8334 13.4355L66.5471 13.3882L66.6136 13.763C67.1255 13.3841 67.7928 13.0773 68.6096 13.0843C68.6348 13.0821 68.6631 13.079 68.6943 13.0775ZM62.8754 15.4624L62.8439 25.2545L66.3274 25.2259C66.244 24.6207 66.11 23.9479 65.9674 23.3247C65.8549 22.8329 65.7427 22.3944 65.6585 22.0789C65.6165 21.9214 65.5815 21.7952 65.5574 21.7089C65.5453 21.6659 65.5361 21.6328 65.5298 21.6109C65.5267 21.5999 65.5242 21.5917 65.5227 21.5865C65.5219 21.5839 65.5213 21.5819 65.521 21.5808L65.5207 21.5797C65.3486 21.031 65.2857 20.4849 65.263 20.0918C65.2512 19.8881 65.2495 19.7156 65.251 19.5917C65.2518 19.5295 65.2533 19.479 65.2547 19.4423C65.2554 19.424 65.2561 19.409 65.2567 19.3978C65.257 19.3921 65.2573 19.3874 65.2576 19.3836C65.2577 19.3817 65.2578 19.3799 65.2578 19.3785C65.2579 19.3779 65.2581 19.3773 65.2581 19.3768V19.3754C65.2591 19.3753 65.2749 19.3764 65.5329 19.3927L65.2581 19.3754L65.2749 19.1083L65.4207 18.8838C65.4263 18.8751 65.4323 18.8667 65.438 18.8582L64.8319 15.4462L62.8754 15.4624ZM68.7943 15.1185L68.7193 15.1312L68.619 15.1278C68.2035 15.1146 67.8085 15.354 67.4448 15.7674C67.2731 15.9626 67.1385 16.164 67.0467 16.3188C67.0015 16.3951 66.9686 16.4571 66.9481 16.4972C66.9379 16.5171 66.9307 16.5315 66.927 16.5391C66.9252 16.5429 66.9244 16.545 66.9242 16.5454L66.1209 18.3255C66.3928 18.2242 66.6605 18.2093 66.8409 18.215C67.2243 18.2271 67.6095 18.3331 67.9037 18.433C68.2125 18.5378 68.4972 18.6626 68.6997 18.7579C68.784 18.7976 68.8564 18.8336 68.9131 18.8622C69.334 18.945 69.5349 18.8678 69.6255 18.8157C69.7423 18.7485 69.8621 18.6143 69.9645 18.3698C70.0669 18.1252 70.1208 17.8418 70.1455 17.5983C70.1574 17.4811 70.1616 17.383 70.1628 17.3171C70.1632 17.297 70.1629 17.2802 70.1628 17.2669C69.9839 15.8038 69.4792 15.376 69.2507 15.2421C69.1114 15.1605 68.981 15.1314 68.8889 15.1221C68.8431 15.1175 68.8095 15.1177 68.7943 15.1185ZM66.9245 16.5442C66.9246 16.5439 66.9251 16.5436 66.9253 16.5431C66.9255 16.5428 66.9255 16.5423 66.9256 16.542L66.9245 16.5442ZM68.8099 15.1159C68.8107 15.1158 68.8116 15.116 68.8125 15.1159C68.8134 15.1158 68.8143 15.1155 68.8153 15.1153C68.8158 15.1153 68.8168 15.1151 68.817 15.1151L68.8167 15.1148L68.8099 15.1159Z" fill="white"/>
<path d="M82.1484 11.0204H77.3907L77.4228 14.7626L75.6012 14.7481C71.8271 16.0893 72.0919 19.4047 72.0919 19.4047L72.1239 21.5356C72.3363 25.1646 76.6109 26.6452 76.6109 26.6452L82.419 26.6103L82.1513 11.0204H82.1484ZM77.6846 23.5765C75.3568 23.6985 75.3975 21.3556 75.3975 21.3556C75.2782 19.396 76.4567 19.1492 76.4567 19.1492L77.6468 19.1376L77.6846 23.5765Z" fill="white"/>
<path d="M83.1569 9.99863L83.4595 27.6259L76.4398 27.6681L76.2738 27.6106L76.6097 26.6452L76.273 27.6103C76.2728 27.6103 76.2724 27.6101 76.2721 27.61C76.2715 27.6098 76.2709 27.6094 76.2701 27.6092C76.2687 27.6087 76.267 27.6082 76.265 27.6075C76.261 27.6061 76.256 27.6042 76.2499 27.6021C76.2379 27.5978 76.2217 27.5919 76.2019 27.5845C76.1623 27.5697 76.1077 27.5485 76.0399 27.521C75.9045 27.4661 75.716 27.3852 75.4915 27.2766C75.0449 27.0605 74.4432 26.7292 73.8291 26.2673C72.6169 25.3555 71.2311 23.8342 71.1 21.5951L71.0989 21.5729L71.0986 21.5508L71.0671 19.4421C71.0665 19.4324 71.0656 19.4214 71.0651 19.4092C71.0635 19.3709 71.0624 19.32 71.0625 19.2581C71.0627 19.1344 71.0683 18.9651 71.0892 18.7614C71.131 18.3555 71.2343 17.8013 71.4811 17.195C71.9871 15.9517 73.0712 14.562 75.2562 13.7855L75.427 13.7248L76.3881 13.7322L76.3565 9.99863H83.1569ZM76.9459 25.6799C76.9472 25.6804 76.948 25.6807 76.9481 25.6807C76.9481 25.6807 76.9479 25.6805 76.9476 25.6804C76.9474 25.6804 76.947 25.6803 76.9467 25.6802L76.9459 25.6799ZM73.1116 19.3247L73.1142 19.3565L73.1147 19.3893L73.1463 21.4927C73.2335 22.8741 74.0882 23.9024 75.0624 24.6351C75.5436 24.9971 76.024 25.2626 76.3855 25.4375C76.5568 25.5204 76.6988 25.5814 76.7975 25.6218L81.3757 25.5943L81.1433 12.0422H78.4224L78.4545 15.7927L75.7799 15.7715C74.308 16.341 73.6734 17.2405 73.379 17.9639C73.2202 18.354 73.1538 18.7124 73.1273 18.97C73.1141 19.0979 73.1109 19.1981 73.1108 19.2609C73.1107 19.292 73.1112 19.3137 73.1116 19.3247ZM78.7159 24.5458L77.737 24.5972C76.976 24.637 76.3266 24.4765 75.7995 24.1467C75.2788 23.8207 74.9509 23.3753 74.7476 22.9621C74.5466 22.5539 74.4557 22.1554 74.4131 21.8706C74.3914 21.7254 74.3811 21.6018 74.3762 21.5109C74.3737 21.4652 74.3726 21.4271 74.3722 21.398C74.3721 21.3922 74.3719 21.3867 74.3719 21.3816C74.3074 20.2002 74.6288 19.3721 75.1235 18.8297C75.3621 18.5681 75.614 18.4039 75.818 18.3029C75.9198 18.2526 76.0103 18.2175 76.0829 18.1935C76.1192 18.1815 76.1514 18.1721 76.1786 18.1649C76.1922 18.1613 76.2048 18.1581 76.2158 18.1555C76.2213 18.1542 76.2266 18.1532 76.2315 18.1521C76.2339 18.1516 76.2363 18.1509 76.2386 18.1504C76.2396 18.1502 76.2407 18.1501 76.2417 18.1498C76.2422 18.1497 76.2431 18.1496 76.2434 18.1496C76.2442 18.1494 76.245 18.1491 76.4511 19.1288L76.2451 18.149L76.3443 18.1283L76.4455 18.1274L78.6611 18.1056L78.7159 24.5458ZM76.6304 20.2152C76.5619 20.2947 76.3745 20.5673 76.4187 21.2937L76.421 21.3334L76.4204 21.3637V21.3657C76.4205 21.3708 76.4209 21.3831 76.4219 21.4011C76.4238 21.4378 76.4284 21.4965 76.4392 21.569C76.4617 21.7196 76.5063 21.8993 76.5861 22.0614C76.605 22.0998 76.6254 22.1358 76.6469 22.1695L76.6304 20.2152Z" fill="white"/>
<path d="M9.01926 26.3956L1.67188 26.4769L2.99004 10.4225L8.53331 10.376L8.9436 12.4576C8.9436 12.4576 9.8573 10.5096 11.8447 10.408C11.8447 10.408 14.5334 10.2018 15.3802 12.9801C15.3802 12.9801 16.6838 10.3499 18.9797 10.2047C18.9797 10.2047 22.4715 9.57765 23.682 18.0316C23.682 18.0316 24.5666 24.7321 24.3717 26.1778L17.8361 26.2127L17.7692 15.9123C17.7692 15.9123 16.9282 14.4753 16.0087 15.7178L13.7158 25.8556C13.7158 25.8556 13.4102 26.683 13.0523 25.7569L10.384 15.7672C9.89804 14.6378 8.98143 14.7133 8.95815 15.9849L9.02508 26.3898L9.01926 26.3956Z" fill="#77A4D2"/>
<path d="M24.4783 14.3127L28.8227 14.2982L29.5734 17.4684L30.3737 14.243L34.6191 14.2488C34.6191 14.2488 30.9178 29.8445 30.4551 36.0428C30.4551 36.0428 30.5075 38.1737 28.7063 37.1924C28.7063 37.1924 24.5278 32.6519 15.9728 32.5183C15.9728 32.5183 15.0067 32.5241 15.2744 31.4906C15.2744 31.4906 17.4539 28.3755 17.5878 27.7572C17.5878 27.7572 23.7334 28.4626 26.5356 25.3388C26.5356 25.3388 27.2863 24.4389 26.9284 22.6534L24.4783 14.3098V14.3127Z" fill="#BB275C"/>
<path d="M50.6255 10.8956L50.0581 17.1984C50.0581 17.1984 44.7622 14.8671 41.2645 17.5816C41.2645 17.5816 37.0598 22.1598 41.6574 27.1794C41.6574 27.1794 47.7913 30.8432 52.9301 26.6713C52.9301 26.6713 50.8001 31.7489 41.6864 30.2741C41.6864 30.2741 35.1538 28.8835 35.1858 20.3164C35.1858 20.3164 34.4089 13.9236 42.1375 10.3498C42.1375 10.3498 45.027 9.08698 50.6284 10.8985L50.6255 10.8956Z" fill="#D8D938"/>
<path d="M58.795 15.6713C57.3285 13.552 54.3109 14.2371 54.3109 14.2371C51.3487 14.8816 51.5873 18.3886 51.5873 18.3886C53.3041 17.5496 54.0636 17.8196 54.0636 17.8196C55.859 18.0083 55.7368 19.5963 55.7368 19.5963C52.8997 18.9315 51.9103 20.5341 51.9103 20.5341C50.0742 23.7159 52.2682 25.513 52.2682 25.513C53.1063 26.4681 55.5738 25.2372 55.5738 25.2372L55.5127 25.7887L60.2034 25.751C60.2732 17.5612 58.7979 15.6713 58.7979 15.6713H58.795ZM54.7241 24.3314C54.0083 24.3372 53.4264 23.7653 53.4205 23.054C53.4147 22.3398 53.988 21.7592 54.7009 21.7563C55.4167 21.7476 55.9987 22.3224 56.0074 23.0337C56.0103 23.7449 55.44 24.3256 54.7241 24.3343V24.3314Z" fill="#BE7499"/>
<path d="M67.445 26.2388L61.8174 26.2852L61.8552 14.4491L65.6904 14.4171L65.993 16.1213C65.993 16.1213 66.9271 14.0513 68.6526 14.1065C68.6526 14.1065 70.7885 13.7552 71.1871 17.1955C71.1871 17.1955 71.3239 20.4992 68.5624 19.8315C68.5624 19.8315 66.6885 18.8125 66.2811 19.4396C66.2811 19.4396 66.22 20.4034 66.5052 21.2947C66.5052 21.2947 67.4247 24.4533 67.4392 26.2388H67.445Z" fill="#CE8131"/>
<path d="M82.1484 11.0204H77.3907L77.4228 14.7626L75.6012 14.7481C71.8271 16.0893 72.0919 19.4047 72.0919 19.4047L72.1239 21.5356C72.3363 25.1646 76.6109 26.6452 76.6109 26.6452L82.419 26.6103L82.1513 11.0204H82.1484ZM77.6846 23.5765C75.3568 23.6985 75.3975 21.3556 75.3975 21.3556C75.2782 19.396 76.4567 19.1492 76.4567 19.1492L77.6468 19.1376L77.6846 23.5765Z" fill="#4B639A"/>
<path d="M59.3324 9.15372L61.5206 10.2801L61.1045 7.89085L62.8649 6.20993L60.4294 5.86445L59.3324 3.68419L58.2354 5.86445L55.8027 6.20993L57.5632 7.89085L57.1442 10.2801L59.3324 9.15372Z" fill="#B82B34"/>
</g>
<defs>
<clipPath id="clip0_90_1096">
<rect width="85" height="40" fill="white"/>
</clipPath>
</defs>
</svg>
